<svg version="1.1" xmlns="http://www.w3.org/2000/svg" viewBox="0 0 1237.9016757477075 765.453125" width="3713.7050272431225" height="2296.359375">
  <!-- svg-source:excalidraw -->
  
  <defs>
    <style>
      @font-face {
        font-family: "Virgil";
        src: url("https://excalidraw.com/Virgil.woff2");
      }
      @font-face {
        font-family: "Cascadia";
        src: url("https://excalidraw.com/Cascadia.woff2");
      }
    </style>
  </defs>
  <rect x="0" y="0" width="1237.9016757477075" height="765.453125" fill="#ffffff"></rect><g stroke-linecap="round" transform="translate(36.30859375 157.1875) rotate(0 150.15820312499997 85.546875)"><path d="M-0.39 1.38 C73.12 -0.48, 149.22 -0.08, 301.51 -0.97 M-0.25 0.65 C78.55 -0.43, 157.82 -0.32, 299.84 -0.63 M300.87 1.18 C298.97 52.66, 300.47 103.2, 298.6 172.93 M300.06 0.93 C299.04 59.26, 298.61 116.09, 300.59 170.94 M301.75 172.53 C210.55 169.38, 119.62 169.07, -0.53 171.54 M300.43 170.68 C219.99 172.06, 139.5 172.35, -0.27 171.11 M0.5 172.4 C2.99 108.31, 0.54 42.41, -1.33 -0.67 M-0.88 171.34 C1.33 133.69, 0.61 96.51, 0.17 -0.54" stroke="#000000" stroke-width="1" fill="none"></path></g><g stroke-linecap="round" transform="translate(171.08564964282573 233.44258290791083) rotate(338.51584541591535 64.02582191653721 32.865234375)"><path d="M6.56 18.95 C6.56 18.95, 6.56 18.95, 6.56 18.95 M6.56 18.95 C6.56 18.95, 6.56 18.95, 6.56 18.95 M2.26 31.06 C4.45 26.94, 7.49 22.53, 17.28 12.31 M2.11 28.49 C6.35 24.48, 9.14 21.55, 18.7 11.73 M-0.34 35.17 C6.51 27.32, 12.58 22.62, 30.55 6.39 M1.47 37.91 C11.45 24.14, 22.48 12.58, 28.63 5.59 M3.52 41.36 C9.35 31.5, 17.99 24.45, 35.03 2.8 M3.76 40.21 C15.82 26.02, 27 11.98, 35.81 2.09 M6.63 43.72 C13.48 33.41, 24.62 24.49, 41.07 4.35 M6.36 44.6 C15.01 34.67, 23.08 23.19, 41.82 3.3 M8.81 44.86 C18.05 34.16, 30.69 25.66, 47.22 4.47 M9 46.37 C17.9 36.54, 26.65 25.77, 47.52 3.27 M9.97 50.78 C24.7 30.88, 41.21 14.86, 50.74 4.8 M11.85 50.32 C21.9 35.83, 33.88 24.33, 51.49 3.13 M15.78 51.67 C26.09 37.87, 38.25 25.33, 58.47 2.22 M13.11 53.05 C26.97 36.66, 42.1 20.37, 57.91 2.7 M16.7 53.93 C31.21 38.1, 42.76 25.96, 63.94 3.45 M19 53.59 C30.7 40.35, 41.85 26.83, 63.62 2.54 M23.73 56.35 C41.46 36.21, 56.9 17.29, 69 2.05 M21.55 57.01 C36.18 38.36, 51.83 21.61, 68.73 1.6 M24.66 55.54 C44.66 37.22, 59.55 16.29, 76.86 0.05 M25.74 56.46 C41.33 38.17, 57.85 20.17, 75.58 0.23 M31.85 58.07 C43.61 41.29, 61.03 25.9, 81.17 3.23 M31.28 58.8 C44.23 41.93, 57.17 26.24, 78.89 2.16 M35.87 61.51 C50.02 39.4, 69.46 23.09, 82.24 1.92 M35.2 60.19 C48.17 43.99, 62.82 29.4, 83.83 2.68 M37.14 61.48 C56.91 41.11, 76.02 20.98, 88.84 5.57 M39.54 60.68 C51.38 46.78, 62.83 34.33, 88.87 3.85 M41.09 64.27 C58.04 44.23, 72.81 24.99, 94.5 5.1 M41.34 63.3 C56.52 47.2, 71.94 29.93, 92.04 4.3 M44.37 66.8 C61.55 48.88, 78.37 30.75, 97.26 8.16 M46.93 65.65 C67.03 42.69, 86.04 17.68, 97.58 7.08 M49.25 65.52 C70.75 43.82, 85.33 25.19, 101.27 8.45 M51.28 65.25 C61.93 52.91, 72.87 41.26, 101.63 6.51 M54.05 65.46 C71.11 51.54, 83.42 36.59, 104.54 9.09 M56.34 66.16 C71.74 45.85, 89.56 26.85, 104.83 8 M60.72 67 C78.02 43.49, 98 21.47, 107.29 9.36 M61.66 66.27 C75.86 50.18, 89.11 34.16, 108.72 10.45 M66.6 65.49 C80.17 49.36, 99.4 29.54, 112.26 14.78 M66.09 66.44 C84.71 46.23, 102.26 23, 112.96 12.76 M70.71 67.5 C81.61 54.24, 91.33 40.81, 115.79 13.97 M71.03 67.32 C79.27 56.28, 88.31 46.7, 116.42 16.26 M77.47 66.42 C87.91 49.01, 102.07 34.79, 116.78 19.91 M78.12 66.43 C89.92 50.29, 103.88 36.12, 119.11 18.49 M85.13 65.53 C96 46.4, 109.4 34.18, 120.42 21.5 M84.64 63.81 C93.96 53.65, 102.21 42.96, 121.85 20.31 M93.32 60.56 C100.72 50.62, 110 40.59, 123.9 21.17 M91.06 62.04 C104.59 46.63, 117.92 31.99, 124.95 22.03 M98.83 59.46 C104.41 51.84, 113.25 43.93, 130.02 23.65 M99.76 58.67 C108.4 47.93, 119.4 36.35, 127.83 25.7 M106.62 58.27 C110.62 52.14, 117.08 44.47, 129 30.08 M105.97 57.47 C111.84 50.41, 117.57 42.84, 127.74 31.76 M111.51 58.68 C117.38 49.05, 123.28 41.21, 127.3 38.48 M110.52 58.61 C113.48 54.25, 118.77 48.48, 128.6 37.05" stroke="#fa5252" stroke-width="0.5" fill="none"></path><path d="M40.02 1.46 C49.59 -0.89, 64.19 -0.5, 75.1 0.63 C86.02 1.76, 96.95 4.47, 105.48 8.26 C114.02 12.06, 122.89 17.73, 126.29 23.39 C129.69 29.05, 129 36.8, 125.89 42.24 C122.78 47.67, 115.8 52.05, 107.62 56 C99.44 59.95, 87.53 64.74, 76.82 65.94 C66.1 67.13, 53.84 65.34, 43.33 63.16 C32.83 60.98, 20.92 57.28, 13.79 52.87 C6.66 48.46, 1.81 42.29, 0.57 36.69 C-0.68 31.08, 1.61 24.49, 6.32 19.23 C11.02 13.97, 22.67 7.86, 28.79 5.12 C34.92 2.37, 40.32 3.28, 43.08 2.77 C45.83 2.26, 45.19 1.72, 45.31 2.05 M52.75 1.65 C63.31 0.04, 77.54 -0.71, 88.17 1.03 C98.79 2.77, 109.75 7.45, 116.48 12.09 C123.22 16.73, 127.79 23.08, 128.57 28.85 C129.34 34.61, 126.14 41.1, 121.14 46.68 C116.13 52.25, 108.34 59.01, 98.54 62.3 C88.75 65.59, 73.62 66.57, 62.38 66.41 C51.13 66.26, 40.44 64.66, 31.05 61.37 C21.66 58.08, 11.27 52.06, 6.04 46.67 C0.81 41.28, -1.7 34.76, -0.36 29.04 C0.98 23.31, 7.08 16.58, 14.09 12.33 C21.1 8.07, 35.32 5.7, 41.69 3.5 C48.07 1.29, 50.49 -0.31, 52.33 -0.9 C54.18 -1.49, 52.2 -0.67, 52.76 -0.03" stroke="#c92a2a" stroke-width="1" fill="none"></path></g><g transform="translate(10 10) rotate(0 585.5 22.5)"><text x="0" y="32" font-family="Virgil, Segoe UI Emoji" font-size="36px" fill="#000000" text-anchor="start" style="white-space: pre;" direction="ltr">Storm Mode Classification based on 3D Radar Reflectivity (dBZ)</text></g><g transform="translate(28.8125 83.3515625) rotate(0 224.5 17.5)"><text x="0" y="25" font-family="Virgil, Segoe UI Emoji" font-size="28px" fill="#000000" text-anchor="start" style="white-space: pre;" direction="ltr">Start from max. composite dBZ:</text></g><g transform="translate(48.94140625 168.25) rotate(0 93.5 25)"><text x="93.5" y="18" font-family="Virgil, Segoe UI Emoji" font-size="20px" fill="#c92a2a" text-anchor="middle" style="white-space: pre;" direction="ltr">&gt;= 30 (40) dBZ &amp;</text><text x="93.5" y="43" font-family="Virgil, Segoe UI Emoji" font-size="20px" fill="#c92a2a" text-anchor="middle" style="white-space: pre;" direction="ltr">masked convective</text></g><g stroke-linecap="round"><g transform="translate(134.56706900063443 233.86453490465874) rotate(0 17.252777301371907 13.486772559691616)"><path d="M-0.77 0.97 C5.03 5.07, 29.55 21.01, 35.27 25.3 M1.03 0.43 C6.69 4.63, 28.9 22.47, 34.72 26.55" stroke="#c92a2a" stroke-width="1" fill="none"></path></g><g transform="translate(134.56706900063443 233.86453490465874) rotate(0 17.252777301371907 13.486772559691616)"><path d="M15.72 21.44 C20.24 20.89, 29.7 26.33, 32.84 25.57 M15.06 20.13 C19.88 21.5, 26.44 24.54, 34.43 26.33" stroke="#c92a2a" stroke-width="1" fill="none"></path></g><g transform="translate(134.56706900063443 233.86453490465874) rotate(0 17.252777301371907 13.486772559691616)"><path d="M24.63 9.68 C26.18 13.09, 32.59 22.53, 32.84 25.57 M23.96 8.37 C26.32 12.98, 30.41 19.27, 34.43 26.33" stroke="#c92a2a" stroke-width="1" fill="none"></path></g></g><g stroke-linecap="round"><g transform="translate(349.36210247576236 234.65443762440873) rotate(0 28.35078209154304 0.12910567261363326)"><path d="M-0.23 0.1 C9.71 -0.07, 48.9 -0.2, 58.52 -0.37 M-1.81 -0.89 C8.1 -0.91, 47.44 1, 57.74 1.15" stroke="#000000" stroke-width="4" fill="none"></path></g><g transform="translate(349.36210247576236 234.65443762440873) rotate(0 28.35078209154304 0.12910567261363326)"><path d="M30.27 10.75 C35.62 7.21, 40.26 6.89, 57.18 1.31 M29.9 10.53 C39.66 7.72, 50.22 3.78, 56.77 0.49" stroke="#000000" stroke-width="4" fill="none"></path></g><g transform="translate(349.36210247576236 234.65443762440873) rotate(0 28.35078209154304 0.12910567261363326)"><path d="M30.92 -9.14 C36.25 -8.64, 40.75 -4.9, 57.18 1.31 M30.55 -9.36 C40.2 -4.84, 50.52 -1.45, 56.77 0.49" stroke="#000000" stroke-width="4" fill="none"></path></g></g><g transform="translate(416.61328125 220.0859375) rotate(0 136.5 12.5)"><text x="136.5" y="18" font-family="Virgil, Segoe UI Emoji" font-size="20px" fill="#000000" text-anchor="middle" style="white-space: pre;" direction="ltr">Mapped to 8 (10) km Height</text></g><g stroke-linecap="round"><g transform="translate(688.6107194270998 218.08128370837647) rotate(322.7114127926438 30.135115710182557 -5.795878200290218)"><path d="M-0.44 -0.65 C9.17 -2.56, 48.4 -9.33, 58.45 -11.33 M1.53 1.62 C11.46 -0.67, 51.07 -10.98, 60.71 -13.21" stroke="#000000" stroke-width="4" fill="none"></path></g><g transform="translate(688.6107194270998 218.08128370837647) rotate(322.7114127926438 30.135115710182557 -5.795878200290218)"><path d="M34.73 2.11 C45.59 -1.53, 52.43 -7.09, 61.18 -13.59 M35.92 2.98 C41.85 -0.6, 45.69 -4.16, 60.4 -14.1" stroke="#000000" stroke-width="4" fill="none"></path></g><g transform="translate(688.6107194270998 218.08128370837647) rotate(322.7114127926438 30.135115710182557 -5.795878200290218)"><path d="M29.79 -17.81 C42.47 -14.2, 51.1 -12.52, 61.18 -13.59 M30.98 -16.94 C37.96 -16.38, 42.83 -15.79, 60.4 -14.1" stroke="#000000" stroke-width="4" fill="none"></path></g></g><g transform="translate(748.6640625 162.9453125) rotate(0 81.5 12.5)"><text x="81.5" y="18" font-family="Virgil, Segoe UI Emoji" font-size="20px" fill="#000000" text-anchor="middle" style="white-space: pre;" direction="ltr">&gt;= 30 (40) dBZ</text></g><g stroke-linecap="round"><g transform="translate(925.28125 171.8181554652313) rotate(0 20.411968799084406 0.9041169154248223)"><path d="M0.55 1.01 C7.08 1.45, 32.86 1.81, 39.31 1.75 M-0.62 0.49 C6.26 0.68, 34.42 -0.14, 41.44 0.09" stroke="#000000" stroke-width="4" fill="none"></path></g><g transform="translate(925.28125 171.8181554652313) rotate(0 20.411968799084406 0.9041169154248223)"><path d="M24.14 5.2 C29.88 2.85, 33.98 2.03, 39.65 0.64 M23.18 7.08 C26.53 6.21, 32.91 3.19, 41.77 -0.54" stroke="#000000" stroke-width="4" fill="none"></path></g><g transform="translate(925.28125 171.8181554652313) rotate(0 20.411968799084406 0.9041169154248223)"><path d="M24.12 -8.63 C29.76 -6.68, 33.87 -3.2, 39.65 0.64 M23.16 -6.74 C26.54 -4.04, 32.93 -3.48, 41.77 -0.54" stroke="#000000" stroke-width="4" fill="none"></path></g></g><g transform="translate(974.48046875 147.22265625) rotate(0 37 22.5)"><text x="37" y="32" font-family="Virgil, Segoe UI Emoji" font-size="36px" fill="#c92a2a" text-anchor="middle" style="white-space: pre;" direction="ltr">DCC</text></g><g stroke-linecap="round"><g transform="translate(703.2989629582145 237.96738743229378) rotate(0 19.476122652943438 15.556663964293477)"><path d="M-0.98 -0.78 C5.4 4.39, 31.33 26.62, 37.77 31.89 M0.7 1.43 C7.5 6.16, 33.39 24.98, 39.94 30.07" stroke="#000000" stroke-width="4" fill="none"></path></g><g transform="translate(703.2989629582145 237.96738743229378) rotate(0 19.476122652943438 15.556663964293477)"><path d="M14.77 21.14 C23.14 22.99, 27.5 28.03, 41.11 31.71 M15.12 22.57 C24.92 24.85, 33.6 28.18, 40.59 30.71" stroke="#000000" stroke-width="4" fill="none"></path></g><g transform="translate(703.2989629582145 237.96738743229378) rotate(0 19.476122652943438 15.556663964293477)"><path d="M24.99 7.49 C30.87 12.72, 32.64 21.22, 41.11 31.71 M25.33 8.92 C31.16 16.43, 35.94 24.99, 40.59 30.71" stroke="#000000" stroke-width="4" fill="none"></path></g></g><g transform="translate(755.84765625 259.7890625) rotate(0 76.5 12.5)"><text x="76.5" y="18" font-family="Virgil, Segoe UI Emoji" font-size="20px" fill="#000000" text-anchor="middle" style="white-space: pre;" direction="ltr">&lt; 30 (40) dBZ</text></g><g stroke-linecap="round"><g transform="translate(924.690748205036 269.00673202019414) rotate(0 18.896941720321735 -0.27027468272308397)"><path d="M-0.67 -0.74 C5.84 -0.97, 32.09 -1.84, 38.46 -2.02 M1.19 1.48 C7.65 1.42, 32.05 -0.69, 37.98 -1.11" stroke="#000000" stroke-width="4" fill="none"></path></g><g transform="translate(924.690748205036 269.00673202019414) rotate(0 18.896941720321735 -0.27027468272308397)"><path d="M19.71 8.07 C23.41 4.75, 28.06 3.54, 37.85 -0.48 M20.7 6.27 C25.32 5.4, 30.74 3.12, 38.79 -0.28" stroke="#000000" stroke-width="4" fill="none"></path></g><g transform="translate(924.690748205036 269.00673202019414) rotate(0 18.896941720321735 -0.27027468272308397)"><path d="M18.71 -4.75 C22.59 -4.79, 27.49 -2.74, 37.85 -0.48 M19.7 -6.54 C24.68 -4.05, 30.37 -2.96, 38.79 -0.28" stroke="#000000" stroke-width="4" fill="none"></path></g></g><g transform="translate(970.640625 241.5078125) rotate(0 49 22.5)"><text x="49" y="32" font-family="Virgil, Segoe UI Emoji" font-size="36px" fill="#c92a2a" text-anchor="middle" style="white-space: pre;" direction="ltr">NDCC</text></g><g stroke-linecap="round"><g transform="translate(365.203125 233.796875) rotate(0 0.606731121158191 97.65134794198906)"><path d="M-0.38 -0.58 C-0.31 31.67, 0.22 161.71, 0.56 194.26 M1.61 1.73 C1.52 34.13, -0.38 164.06, -0.4 195.89" stroke="#000000" stroke-width="4" fill="none"></path></g></g><g stroke-linecap="round"><g transform="translate(365.06874957922844 430.54662253802144) rotate(0 37.92590491817333 -1.553419514763391)"><path d="M0.52 -0.03 C13.26 -0.28, 63.93 -1.08, 76.51 -1.52 M-0.66 -1.1 C11.92 -1.65, 63.05 -3.03, 75.68 -3.07" stroke="#000000" stroke-width="4" fill="none"></path></g><g transform="translate(365.06874957922844 430.54662253802144) rotate(0 37.92590491817333 -1.553419514763391)"><path d="M47.61 8.05 C58.18 3.76, 64.99 2.31, 74.96 -1.76 M47.58 7.73 C54.16 5.9, 59.11 2.78, 75.08 -3.52" stroke="#000000" stroke-width="4" fill="none"></path></g><g transform="translate(365.06874957922844 430.54662253802144) rotate(0 37.92590491817333 -1.553419514763391)"><path d="M47.26 -12.47 C57.92 -10.39, 64.84 -5.47, 74.96 -1.76 M47.22 -12.78 C53.76 -10.21, 58.78 -8.92, 75.08 -3.52" stroke="#000000" stroke-width="4" fill="none"></path></g></g><g transform="translate(452.9375 410.2109375) rotate(0 84 12.5)"><text x="84" y="18" font-family="Virgil, Segoe UI Emoji" font-size="20px" fill="#000000" text-anchor="middle" style="white-space: pre;" direction="ltr">contiguous areas</text></g><g stroke-linecap="round"><g transform="translate(629.34200520742 390.53264786235957) rotate(322.7114127926438 42.054546510555014 9.13287809690297)"><path d="M0.61 0.27 C14.68 3.32, 70.74 14.53, 84.64 17.4 M-0.53 -0.64 C13.44 2.7, 70.19 15.67, 84.16 18.91" stroke="#000000" stroke-width="4" fill="none"></path></g><g transform="translate(629.34200520742 390.53264786235957) rotate(322.7114127926438 42.054546510555014 9.13287809690297)"><path d="M54.83 24.09 C63.84 21.63, 73.47 20.57, 82.53 17.97 M53.72 21.98 C66.48 20.72, 78.39 19.04, 84.82 19.51" stroke="#000000" stroke-width="4" fill="none"></path></g><g transform="translate(629.34200520742 390.53264786235957) rotate(322.7114127926438 42.054546510555014 9.13287809690297)"><path d="M59.43 4.09 C66.81 8.05, 74.97 13.39, 82.53 17.97 M58.33 1.98 C69.23 8.64, 79.32 14.89, 84.82 19.51" stroke="#000000" stroke-width="4" fill="none"></path></g></g><g stroke-linecap="round"><g transform="translate(634.8574874197524 422.0762890355754) rotate(0 37.95784027327708 13.574600726421181)"><path d="M0.27 0.9 C13.25 5.27, 64.17 22.49, 76.97 26.82 M-1.05 0.33 C11.85 4.26, 63.1 20.15, 75.99 24.82" stroke="#000000" stroke-width="4" fill="none"></path></g><g transform="translate(634.8574874197524 422.0762890355754) rotate(0 37.95784027327708 13.574600726421181)"><path d="M47.5 25.57 C53.03 25.42, 59.8 23.59, 75.05 26.75 M45.4 25.95 C54.18 26.01, 62.57 26.03, 76.6 25.28" stroke="#000000" stroke-width="4" fill="none"></path></g><g transform="translate(634.8574874197524 422.0762890355754) rotate(0 37.95784027327708 13.574600726421181)"><path d="M53.97 6.09 C58.16 10.28, 63.5 12.78, 75.05 26.75 M51.87 6.48 C58.79 12.08, 65.32 17.69, 76.6 25.28" stroke="#000000" stroke-width="4" fill="none"></path></g></g><g transform="translate(719.47265625 349.984375) rotate(0 102 12.5)"><text x="102" y="18" font-family="Virgil, Segoe UI Emoji" font-size="20px" fill="#000000" text-anchor="middle" style="white-space: pre;" direction="ltr">&gt;= 800 (1000) km^2</text></g><g transform="translate(719.04296875 437.72265625) rotate(0 97 12.5)"><text x="97" y="18" font-family="Virgil, Segoe UI Emoji" font-size="20px" fill="#000000" text-anchor="middle" style="white-space: pre;" direction="ltr">&lt; 800 (1000) km^2</text></g><g stroke-linecap="round"><g transform="translate(935.797204022482 358.2455217065942) rotate(0 20.28512751944362 0.5142876568978068)"><path d="M-0.96 0.29 C6.1 0.52, 34.19 1.46, 41.53 1.63 M0.74 -0.6 C7.69 -0.7, 33.36 0.12, 40.39 0.12" stroke="#000000" stroke-width="4" fill="none"></path></g><g transform="translate(935.797204022482 358.2455217065942) rotate(0 20.28512751944362 0.5142876568978068)"><path d="M21.08 6.35 C27.06 7.52, 31.06 2.08, 39.03 -1.68 M20.53 6.73 C27.9 4.26, 34.82 2.75, 41.13 -0.32" stroke="#000000" stroke-width="4" fill="none"></path></g><g transform="translate(935.797204022482 358.2455217065942) rotate(0 20.28512751944362 0.5142876568978068)"><path d="M21.32 -7.98 C27.28 -3.51, 31.22 -5.65, 39.03 -1.68 M20.76 -7.6 C28.07 -5.16, 34.9 -1.76, 41.13 -0.32" stroke="#000000" stroke-width="4" fill="none"></path></g></g><g transform="translate(986.578454022482 332.744140625) rotate(0 36.5 22.5)"><text x="36.5" y="32" font-family="Virgil, Segoe UI Emoji" font-size="36px" fill="#c92a2a" text-anchor="middle" style="white-space: pre;" direction="ltr">WCC</text></g><g stroke-linecap="round"><g transform="translate(926.1598272275181 449.21312332716286) rotate(0 24.426196895912227 0.17753837054209498)"><path d="M-0.36 1.16 C8 1.25, 41.34 1.18, 49.21 0.85 M1.65 0.72 C10.04 0.45, 40.97 -0.74, 48.89 -0.84" stroke="#000000" stroke-width="4" fill="none"></path></g><g transform="translate(926.1598272275181 449.21312332716286) rotate(0 24.426196895912227 0.17753837054209498)"><path d="M28.49 9.98 C32.83 4.23, 35.02 2.37, 49.74 -0.77 M27.1 7.69 C34.5 5.69, 41.85 1.86, 49.12 0.13" stroke="#000000" stroke-width="4" fill="none"></path></g><g transform="translate(926.1598272275181 449.21312332716286) rotate(0 24.426196895912227 0.17753837054209498)"><path d="M28.04 -6.44 C32.52 -8.57, 34.81 -6.81, 49.74 -0.77 M26.65 -8.73 C34.19 -5.38, 41.68 -3.87, 49.12 0.13" stroke="#000000" stroke-width="4" fill="none"></path></g></g><g transform="translate(982.469079022482 429.642578125) rotate(0 94.5 17.5)"><text x="94.5" y="25" font-family="Virgil, Segoe UI Emoji" font-size="28px" fill="#000000" text-anchor="middle" style="white-space: pre;" direction="ltr">DCC or NDCC</text></g><g stroke-linecap="round"><g transform="translate(1083.77734375 352.328125) rotate(0 69.18845461439341 1.9891905304509692)"><path d="M-1.09 1.06 C22 1.59, 116.17 2.06, 139.46 2.13 M0.54 0.56 C23.4 1.35, 115.13 3.13, 138.57 3.41" stroke="#000000" stroke-width="4" fill="none"></path></g></g><g stroke-linecap="round"><g transform="translate(1222.28125 354.64453125) rotate(0 2.1009071122854834 81.76152767840773)"><path d="M-0.6 0.24 C0.08 27.77, 3.82 136.9, 4.8 164.21 M1.28 -0.69 C1.78 26.55, 3.41 134.5, 4.02 162.19" stroke="#000000" stroke-width="4" fill="none"></path></g></g><g stroke-linecap="round"><g transform="translate(1227.546875 513.78125) rotate(0 -431.09069805853073 0.2666343416942709)"><path d="M0.35 0.19 C-143.37 0.45, -717.89 1.09, -861.53 1.31 M-0.92 -0.76 C-144.89 -0.84, -718.98 -0.62, -862.54 -0.58" stroke="#000000" stroke-width="4" fill="none"></path></g></g><g stroke-linecap="round"><g transform="translate(365.5318488186514 514.5742102021615) rotate(0 0.058887834604860245 23.251844230707377)"><path d="M-0.78 -0.44 C-0.94 7.63, -0.31 40.25, -0.38 48.23 M1.02 -1.72 C0.71 6.02, -0.41 38.05, -0.9 46.44" stroke="#000000" stroke-width="4" fill="none"></path></g></g><g stroke-linecap="round"><g transform="translate(367.49988837577814 565.8155369350073) rotate(0 81.34425109573509 0.2444247646555482)"><path d="M0 -0.88 C27.29 -0.74, 136.63 -0.15, 164.15 0 M-1.46 1.27 C25.58 1.6, 135.24 1.08, 162.92 1.01" stroke="#000000" stroke-width="4" fill="none"></path></g><g transform="translate(367.49988837577814 565.8155369350073) rotate(0 81.34425109573509 0.2444247646555482)"><path d="M133.29 10.47 C142.62 8.65, 152.13 5.39, 163.46 1 M134.79 11.45 C144.16 7.86, 152.84 5.41, 162.28 0.51" stroke="#000000" stroke-width="4" fill="none"></path></g><g transform="translate(367.49988837577814 565.8155369350073) rotate(0 81.34425109573509 0.2444247646555482)"><path d="M133.22 -10.05 C142.43 -4.98, 151.96 -1.35, 163.46 1 M134.72 -9.07 C144.03 -6.25, 152.72 -2.3, 162.28 0.51" stroke="#000000" stroke-width="4" fill="none"></path></g></g><g transform="translate(541.41796875 552.49609375) rotate(0 134.5 12.5)"><text x="134.5" y="18" font-family="Virgil, Segoe UI Emoji" font-size="20px" fill="#000000" text-anchor="middle" style="white-space: pre;" direction="ltr">DCC points embedded within</text></g><g stroke-linecap="round"><g transform="translate(824.56640625 563.5598803846426) rotate(0 76.71117512267081 0.8272514864990512)"><path d="M0.96 0.81 C26.38 0.94, 127.86 0.08, 153.42 0.11 M0 0.19 C25.17 0.57, 126.74 1.73, 152.4 1.52" stroke="#000000" stroke-width="4" fill="none"></path></g><g transform="translate(824.56640625 563.5598803846426) rotate(0 76.71117512267081 0.8272514864990512)"><path d="M125.52 11.47 C134.44 8.98, 146.45 2.95, 153.65 0.07 M123.33 10.91 C130.13 9.46, 135.64 6.82, 153.07 1.97" stroke="#000000" stroke-width="4" fill="none"></path></g><g transform="translate(824.56640625 563.5598803846426) rotate(0 76.71117512267081 0.8272514864990512)"><path d="M125.59 -9.05 C134.36 -3.85, 146.35 -2.18, 153.65 0.07 M123.4 -9.61 C130.23 -6.91, 135.73 -5.42, 153.07 1.97" stroke="#000000" stroke-width="4" fill="none"></path></g></g><g transform="translate(987.01171875 537.78515625) rotate(0 50.5 22.5)"><text x="50.5" y="32" font-family="Virgil, Segoe UI Emoji" font-size="36px" fill="#c92a2a" text-anchor="middle" style="white-space: pre;" direction="ltr">DWCC</text></g><g stroke-linecap="round"><g transform="translate(141.1553513482213 342.03011262332336) rotate(0 -0.2742172176764939 168.74698466618324)"><path d="M0.05 -1.15 C0.36 55.17, 0.65 282.16, 0.84 338.64 M-1.39 0.86 C-1.11 56.78, -0.27 280.55, 0.09 336.9" stroke="#000000" stroke-width="4" fill="none"></path></g></g><g stroke-linecap="round"><g transform="translate(140.59025544980193 686.9531202090053) rotate(0 91.49944376068362 -0.7866602655365114)"><path d="M-1.15 0.38 C29.42 0.34, 153.42 0.13, 184.15 -0.21 M0.45 -0.47 C30.86 -0.86, 153.26 -1.9, 183.58 -1.95" stroke="#000000" stroke-width="4" fill="none"></path></g><g transform="translate(140.59025544980193 686.9531202090053) rotate(0 91.49944376068362 -0.7866602655365114)"><path d="M156.08 9.67 C166.75 4.67, 174.4 0.99, 184.39 -1.11 M155.58 9.44 C161.57 6.03, 168.6 2.74, 184.26 -1.52" stroke="#000000" stroke-width="4" fill="none"></path></g><g transform="translate(140.59025544980193 686.9531202090053) rotate(0 91.49944376068362 -0.7866602655365114)"><path d="M155.96 -10.85 C166.69 -8.49, 174.37 -4.8, 184.39 -1.11 M155.46 -11.08 C161.65 -9.95, 168.71 -8.69, 184.26 -1.52" stroke="#000000" stroke-width="4" fill="none"></path></g></g><g transform="translate(336.46484375 670.4921875) rotate(0 84 12.5)"><text x="84" y="18" font-family="Virgil, Segoe UI Emoji" font-size="20px" fill="#000000" text-anchor="middle" style="white-space: pre;" direction="ltr">contiguous areas</text></g><g transform="translate(44.51171875 705.453125) rotate(0 114 25)"><text x="114" y="18" font-family="Virgil, Segoe UI Emoji" font-size="20px" fill="#364fc7" text-anchor="middle" style="white-space: pre;" direction="ltr">masked stratiform</text><text x="114" y="43" font-family="Virgil, Segoe UI Emoji" font-size="20px" fill="#364fc7" text-anchor="middle" style="white-space: pre;" direction="ltr">(&gt; 0dBZ &amp; &lt;= 25dBZ)</text></g><g stroke-linecap="round"><g transform="translate(516.5608442341493 656.5589922566896) rotate(322.7114127926438 49.98212107085308 18.678708572318953)"><path d="M-0.34 0.08 C15.92 6.38, 81.42 30.6, 97.93 36.95 M1.68 -0.92 C18.3 5.62, 84.23 32.07, 100.31 38.28" stroke="#000000" stroke-width="4" fill="none"></path></g><g transform="translate(516.5608442341493 656.5589922566896) rotate(322.7114127926438 49.98212107085308 18.678708572318953)"><path d="M70.45 36.39 C79.6 38.15, 91.65 37.32, 101.29 39.95 M70.22 37.48 C77.75 37.94, 84.91 37.22, 100.4 37.73" stroke="#000000" stroke-width="4" fill="none"></path></g><g transform="translate(516.5608442341493 656.5589922566896) rotate(322.7114127926438 49.98212107085308 18.678708572318953)"><path d="M77.99 17.3 C84.5 25.37, 94.05 30.88, 101.29 39.95 M77.76 18.39 C83.28 23.53, 88.61 27.45, 100.4 37.73" stroke="#000000" stroke-width="4" fill="none"></path></g></g><g stroke-linecap="round"><g transform="translate(517.5689291938929 690.3229820857271) rotate(0 49.620319025562324 15.423318665280078)"><path d="M0.08 -0.65 C16.98 4.66, 83.62 26.25, 100.58 31.5 M-1.34 1.63 C15.45 6.57, 82.28 24.43, 99.42 29.47" stroke="#000000" stroke-width="4" fill="none"></path></g><g transform="translate(517.5689291938929 690.3229820857271) rotate(0 49.620319025562324 15.423318665280078)"><path d="M68.43 31.11 C76.7 32.66, 82.47 31.68, 101.09 28.33 M69.52 31.93 C76.17 31.35, 81.49 30.94, 98.87 28.81" stroke="#000000" stroke-width="4" fill="none"></path></g><g transform="translate(517.5689291938929 690.3229820857271) rotate(0 49.620319025562324 15.423318665280078)"><path d="M73.95 11.35 C80.9 17.43, 85.4 20.99, 101.09 28.33 M75.04 12.16 C80.65 15.7, 84.83 19.41, 98.87 28.81" stroke="#000000" stroke-width="4" fill="none"></path></g></g><g transform="translate(625.9067542741407 635.068359375) rotate(0 130 12.5)"><text x="130" y="18" font-family="Virgil, Segoe UI Emoji" font-size="20px" fill="#000000" text-anchor="middle" style="white-space: pre;" direction="ltr">&gt;= 40,000 (50,000) km^2</text></g><g transform="translate(625.6997230241407 712.138671875) rotate(0 130 12.5)"><text x="130" y="18" font-family="Virgil, Segoe UI Emoji" font-size="20px" fill="#000000" text-anchor="middle" style="white-space: pre;" direction="ltr">&lt; 40,000 (50,000)  km^2</text></g><g stroke-linecap="round"><g transform="translate(895.4375 646.5675439802155) rotate(0 43.41442369025198 0.5630014575592668)"><path d="M0.97 0.2 C15.59 0.22, 72.52 0.41, 86.81 0.34 M0.02 -0.75 C14.65 -0.53, 71.98 1.62, 86.38 1.87" stroke="#000000" stroke-width="4" fill="none"></path></g><g transform="translate(895.4375 646.5675439802155) rotate(0 43.41442369025198 0.5630014575592668)"><path d="M58.24 12.97 C64.26 10.47, 69.69 6.51, 87.82 1.04 M58.25 11.69 C68.51 7, 78.49 4.34, 85.73 2.04" stroke="#000000" stroke-width="4" fill="none"></path></g><g transform="translate(895.4375 646.5675439802155) rotate(0 43.41442369025198 0.5630014575592668)"><path d="M58.82 -7.54 C64.74 -5.44, 70.04 -4.8, 87.82 1.04 M58.84 -8.82 C68.73 -5.88, 78.49 -0.89, 85.73 2.04" stroke="#000000" stroke-width="4" fill="none"></path></g></g><g transform="translate(990.15234375 620.671875) rotate(0 36 22.5)"><text x="36" y="32" font-family="Virgil, Segoe UI Emoji" font-size="36px" fill="#364fc7" text-anchor="middle" style="white-space: pre;" direction="ltr">BSR</text></g><g stroke-linecap="round"><g transform="translate(895.783203125 724.3466677377153) rotate(0 42.95225318142211 -1.1138871934160761)"><path d="M0.56 0.25 C14.83 0.01, 72.08 -0.39, 86.51 -0.92 M-0.6 -0.66 C13.48 -1.26, 71.24 -2.25, 85.85 -2.48" stroke="#000000" stroke-width="4" fill="none"></path></g><g transform="translate(895.783203125 724.3466677377153) rotate(0 42.95225318142211 -1.1138871934160761)"><path d="M58.26 9.17 C70.01 6.11, 77.18 -0.7, 84.27 -2.43 M57.68 7.29 C63.61 5.95, 70.57 3.17, 86.47 -1.67" stroke="#000000" stroke-width="4" fill="none"></path></g><g transform="translate(895.783203125 724.3466677377153) rotate(0 42.95225318142211 -1.1138871934160761)"><path d="M57.91 -11.35 C69.88 -6.76, 77.18 -5.9, 84.27 -2.43 M57.33 -13.22 C63.41 -9.79, 70.44 -7.79, 86.47 -1.67" stroke="#000000" stroke-width="4" fill="none"></path></g></g><g transform="translate(986.09765625 707.41015625) rotate(0 44 17.5)"><text x="44" y="25" font-family="Virgil, Segoe UI Emoji" font-size="28px" fill="#000000" text-anchor="middle" style="white-space: pre;" direction="ltr">others</text></g></svg>