<svg version="1.1" xmlns="http://www.w3.org/2000/svg" viewBox="0 0 1208.2419229869088 800.0955528846154" width="3624.7257689607263" height="2400.286658653846">
  <!-- svg-source:excalidraw -->
  
  <defs>
    <style>
      @font-face {
        font-family: "Virgil";
        src: url("https://excalidraw.com/Virgil.woff2");
      }
      @font-face {
        font-family: "Cascadia";
        src: url("https://excalidraw.com/Cascadia.woff2");
      }
    </style>
  </defs>
  <g stroke-linecap="round" transform="translate(23.348858173076906 182.42788461538464) rotate(0 139.5662560096154 93.06640624999994)"><path d="M-0.4 1.45 C67.84 -0.4, 138.8 0.02, 280.38 -1.01 M-0.26 0.68 C72.94 -0.47, 146.63 -0.36, 278.63 -0.66 M279.69 1.18 C277.65 57.22, 279.15 112.33, 277.42 187.96 M278.88 0.93 C277.71 64.38, 277.28 126.33, 279.41 185.98 M280.64 187.64 C195.71 184.42, 111.07 184.1, -0.56 186.6 M279.26 185.7 C204.47 187.04, 129.64 187.35, -0.29 186.15 M0.5 187.44 C3.14 117.69, 0.69 46.14, -1.33 -0.67 M-0.88 186.38 C1.42 145.46, 0.71 105.01, 0.17 -0.54" stroke="#000000" stroke-width="1" fill="none"></path></g><g stroke-linecap="round" transform="translate(145.433606373595 277.67335213868) rotate(338.51584541591535 64.02582191653721 32.865234375)"><path d="M6.56 18.95 C6.56 18.95, 6.56 18.95, 6.56 18.95 M6.56 18.95 C6.56 18.95, 6.56 18.95, 6.56 18.95 M2.26 31.06 C4.45 26.94, 7.49 22.53, 17.28 12.31 M2.11 28.49 C6.35 24.48, 9.14 21.55, 18.7 11.73 M-0.34 35.17 C6.51 27.32, 12.58 22.62, 30.55 6.39 M1.47 37.91 C11.45 24.14, 22.48 12.58, 28.63 5.59 M3.52 41.36 C9.35 31.5, 17.99 24.45, 35.03 2.8 M3.76 40.21 C15.82 26.02, 27 11.98, 35.81 2.09 M6.63 43.72 C13.48 33.41, 24.62 24.49, 41.07 4.35 M6.36 44.6 C15.01 34.67, 23.08 23.19, 41.82 3.3 M8.81 44.86 C18.05 34.16, 30.69 25.66, 47.22 4.47 M9 46.37 C17.9 36.54, 26.65 25.77, 47.52 3.27 M9.97 50.78 C24.7 30.88, 41.21 14.86, 50.74 4.8 M11.85 50.32 C21.9 35.83, 33.88 24.33, 51.49 3.13 M15.78 51.67 C26.09 37.87, 38.25 25.33, 58.47 2.22 M13.11 53.05 C26.97 36.66, 42.1 20.37, 57.91 2.7 M16.7 53.93 C31.21 38.1, 42.76 25.96, 63.94 3.45 M19 53.59 C30.7 40.35, 41.85 26.83, 63.62 2.54 M23.73 56.35 C41.46 36.21, 56.9 17.29, 69 2.05 M21.55 57.01 C36.18 38.36, 51.83 21.61, 68.73 1.6 M24.66 55.54 C44.66 37.22, 59.55 16.29, 76.86 0.05 M25.74 56.46 C41.33 38.17, 57.85 20.17, 75.58 0.23 M31.85 58.07 C43.61 41.29, 61.03 25.9, 81.17 3.23 M31.28 58.8 C44.23 41.93, 57.17 26.24, 78.89 2.16 M35.87 61.51 C50.02 39.4, 69.46 23.09, 82.24 1.92 M35.2 60.19 C48.17 43.99, 62.82 29.4, 83.83 2.68 M37.14 61.48 C56.91 41.11, 76.02 20.98, 88.84 5.57 M39.54 60.68 C51.38 46.78, 62.83 34.33, 88.87 3.85 M41.09 64.27 C58.04 44.23, 72.81 24.99, 94.5 5.1 M41.34 63.3 C56.52 47.2, 71.94 29.93, 92.04 4.3 M44.37 66.8 C61.55 48.88, 78.37 30.75, 97.26 8.16 M46.93 65.65 C67.03 42.69, 86.04 17.68, 97.58 7.08 M49.25 65.52 C70.75 43.82, 85.33 25.19, 101.27 8.45 M51.28 65.25 C61.93 52.91, 72.87 41.26, 101.63 6.51 M54.05 65.46 C71.11 51.54, 83.42 36.59, 104.54 9.09 M56.34 66.16 C71.74 45.85, 89.56 26.85, 104.83 8 M60.72 67 C78.02 43.49, 98 21.47, 107.29 9.36 M61.66 66.27 C75.86 50.18, 89.11 34.16, 108.72 10.45 M66.6 65.49 C80.17 49.36, 99.4 29.54, 112.26 14.78 M66.09 66.44 C84.71 46.23, 102.26 23, 112.96 12.76 M70.71 67.5 C81.61 54.24, 91.33 40.81, 115.79 13.97 M71.03 67.32 C79.27 56.28, 88.31 46.7, 116.42 16.26 M77.47 66.42 C87.91 49.01, 102.07 34.79, 116.78 19.91 M78.12 66.43 C89.92 50.29, 103.88 36.12, 119.11 18.49 M85.13 65.53 C96 46.4, 109.4 34.18, 120.42 21.5 M84.64 63.81 C93.96 53.65, 102.21 42.96, 121.85 20.31 M93.32 60.56 C100.72 50.62, 110 40.59, 123.9 21.17 M91.06 62.04 C104.59 46.63, 117.92 31.99, 124.95 22.03 M98.83 59.46 C104.41 51.84, 113.25 43.93, 130.02 23.65 M99.76 58.67 C108.4 47.93, 119.4 36.35, 127.83 25.7 M106.62 58.27 C110.62 52.14, 117.08 44.47, 129 30.08 M105.97 57.47 C111.84 50.41, 117.57 42.84, 127.74 31.76 M111.51 58.68 C117.38 49.05, 123.28 41.21, 127.3 38.48 M110.52 58.61 C113.48 54.25, 118.77 48.48, 128.6 37.05" stroke="#fa5252" stroke-width="0.5" fill="none"></path><path d="M40.02 1.46 C49.59 -0.89, 64.19 -0.5, 75.1 0.63 C86.02 1.76, 96.95 4.47, 105.48 8.26 C114.02 12.06, 122.89 17.73, 126.29 23.39 C129.69 29.05, 129 36.8, 125.89 42.24 C122.78 47.67, 115.8 52.05, 107.62 56 C99.44 59.95, 87.53 64.74, 76.82 65.94 C66.1 67.13, 53.84 65.34, 43.33 63.16 C32.83 60.98, 20.92 57.28, 13.79 52.87 C6.66 48.46, 1.81 42.29, 0.57 36.69 C-0.68 31.08, 1.61 24.49, 6.32 19.23 C11.02 13.97, 22.67 7.86, 28.79 5.12 C34.92 2.37, 40.32 3.28, 43.08 2.77 C45.83 2.26, 45.19 1.72, 45.31 2.05 M52.75 1.65 C63.31 0.04, 77.54 -0.71, 88.17 1.03 C98.79 2.77, 109.75 7.45, 116.48 12.09 C123.22 16.73, 127.79 23.08, 128.57 28.85 C129.34 34.61, 126.14 41.1, 121.14 46.68 C116.13 52.25, 108.34 59.01, 98.54 62.3 C88.75 65.59, 73.62 66.57, 62.38 66.41 C51.13 66.26, 40.44 64.66, 31.05 61.37 C21.66 58.08, 11.27 52.06, 6.04 46.67 C0.81 41.28, -1.7 34.76, -0.36 29.04 C0.98 23.31, 7.08 16.58, 14.09 12.33 C21.1 8.07, 35.32 5.7, 41.69 3.5 C48.07 1.29, 50.49 -0.31, 52.33 -0.9 C54.18 -1.49, 52.2 -0.67, 52.76 -0.03" stroke="#c92a2a" stroke-width="1" fill="none"></path></g><g transform="translate(10 10) rotate(0 585.5 22.5)"><text x="0" y="32" font-family="Virgil, Segoe UI Emoji" font-size="36px" fill="#000000" text-anchor="start" style="white-space: pre;" direction="ltr">Storm Mode Classification based on 3D Radar Reflectivity (dBZ)</text></g><g transform="translate(19.23317307692298 118.82632211538464) rotate(0 224.5 17.5)"><text x="0" y="25" font-family="Virgil, Segoe UI Emoji" font-size="28px" fill="#000000" text-anchor="start" style="white-space: pre;" direction="ltr">Start from max. composite dBZ:</text></g><g transform="translate(39.674579326923094 202.89242788461536) rotate(0 93.5 25)"><text x="93.5" y="18" font-family="Virgil, Segoe UI Emoji" font-size="20px" fill="#c92a2a" text-anchor="middle" style="white-space: pre;" direction="ltr">&gt;= 30 (40) dBZ &amp;</text><text x="93.5" y="43" font-family="Virgil, Segoe UI Emoji" font-size="20px" fill="#c92a2a" text-anchor="middle" style="white-space: pre;" direction="ltr">masked convective</text></g><g stroke-linecap="round"><g transform="translate(115.9242312601217 268.5069627892741) rotate(0 15.659116088717383 16.113163836740057)"><path d="M-0.77 0.97 C4.5 5.95, 26.9 25.38, 32.09 30.56 M1.03 0.43 C6.16 5.5, 26.24 26.85, 31.53 31.8" stroke="#c92a2a" stroke-width="1" fill="none"></path></g><g transform="translate(115.9242312601217 268.5069627892741) rotate(0 15.659116088717383 16.113163836740057)"><path d="M13.16 23.66 C17.49 24.14, 26.73 30.61, 29.65 30.82 M12.5 22.34 C17.15 24.56, 23.53 28.43, 31.24 31.59" stroke="#c92a2a" stroke-width="1" fill="none"></path></g><g transform="translate(115.9242312601217 268.5069627892741) rotate(0 15.659116088717383 16.113163836740057)"><path d="M23.87 13.01 C24.6 17.06, 30.19 27.16, 29.65 30.82 M23.21 11.7 C24.89 16.84, 28.31 23.66, 31.24 31.59" stroke="#c92a2a" stroke-width="1" fill="none"></path></g></g><g stroke-linecap="round"><g transform="translate(316.2629379673533 267.912370546868) rotate(0 39.8682784219082 0.325004778433879)"><path d="M-0.23 0.1 C13.55 0, 68.1 0.13, 81.55 0.02 M-1.81 -0.89 C11.94 -0.85, 66.64 1.32, 80.78 1.54" stroke="#000000" stroke-width="4" fill="none"></path></g><g transform="translate(316.2629379673533 267.912370546868) rotate(0 39.8682784219082 0.325004778433879)"><path d="M52.48 11.55 C58 7.92, 62.8 7.53, 80.21 1.7 M52.11 11.33 C62.17 8.38, 73.03 4.28, 79.8 0.89" stroke="#000000" stroke-width="4" fill="none"></path></g><g transform="translate(316.2629379673533 267.912370546868) rotate(0 39.8682784219082 0.325004778433879)"><path d="M53.06 -8.96 C58.57 -8.41, 63.26 -4.64, 80.21 1.7 M52.69 -9.18 C62.68 -4.58, 73.32 -1.11, 79.8 0.89" stroke="#000000" stroke-width="4" fill="none"></path></g></g><g transform="translate(407.3464543269231 254.72836538461536) rotate(0 136.5 12.5)"><text x="136.5" y="18" font-family="Virgil, Segoe UI Emoji" font-size="20px" fill="#000000" text-anchor="middle" style="white-space: pre;" direction="ltr">Mapped to 8 (10) km Height</text></g><g stroke-linecap="round"><g transform="translate(679.3438925040227 252.72371159299183) rotate(322.7114127926438 30.135115710182557 -5.795878200290218)"><path d="M-0.44 -0.65 C9.17 -2.56, 48.4 -9.33, 58.45 -11.33 M1.53 1.62 C11.46 -0.67, 51.07 -10.98, 60.71 -13.21" stroke="#000000" stroke-width="4" fill="none"></path></g><g transform="translate(679.3438925040227 252.72371159299183) rotate(322.7114127926438 30.135115710182557 -5.795878200290218)"><path d="M34.73 2.11 C45.59 -1.53, 52.43 -7.09, 61.18 -13.59 M35.92 2.98 C41.85 -0.6, 45.69 -4.16, 60.4 -14.1" stroke="#000000" stroke-width="4" fill="none"></path></g><g transform="translate(679.3438925040227 252.72371159299183) rotate(322.7114127926438 30.135115710182557 -5.795878200290218)"><path d="M29.79 -17.81 C42.47 -14.2, 51.1 -12.52, 61.18 -13.59 M30.98 -16.94 C37.96 -16.38, 42.83 -15.79, 60.4 -14.1" stroke="#000000" stroke-width="4" fill="none"></path></g></g><g transform="translate(739.3972355769231 197.58774038461536) rotate(0 81.5 12.5)"><text x="81.5" y="18" font-family="Virgil, Segoe UI Emoji" font-size="20px" fill="#000000" text-anchor="middle" style="white-space: pre;" direction="ltr">&gt;= 30 (40) dBZ</text></g><g stroke-linecap="round"><g transform="translate(916.0144230769231 206.46058334984667) rotate(0 20.411968799084406 0.9041169154248223)"><path d="M0.55 1.01 C7.08 1.45, 32.86 1.81, 39.31 1.75 M-0.62 0.49 C6.26 0.68, 34.42 -0.14, 41.44 0.09" stroke="#000000" stroke-width="4" fill="none"></path></g><g transform="translate(916.0144230769231 206.46058334984667) rotate(0 20.411968799084406 0.9041169154248223)"><path d="M24.14 5.2 C29.88 2.85, 33.98 2.03, 39.65 0.64 M23.18 7.08 C26.53 6.21, 32.91 3.19, 41.77 -0.54" stroke="#000000" stroke-width="4" fill="none"></path></g><g transform="translate(916.0144230769231 206.46058334984667) rotate(0 20.411968799084406 0.9041169154248223)"><path d="M24.12 -8.63 C29.76 -6.68, 33.87 -3.2, 39.65 0.64 M23.16 -6.74 C26.54 -4.04, 32.93 -3.48, 41.77 -0.54" stroke="#000000" stroke-width="4" fill="none"></path></g></g><g transform="translate(965.2136418269231 181.86508413461536) rotate(0 37 22.5)"><text x="37" y="32" font-family="Virgil, Segoe UI Emoji" font-size="36px" fill="#c92a2a" text-anchor="middle" style="white-space: pre;" direction="ltr">DCC</text></g><g stroke-linecap="round"><g transform="translate(694.0321360351376 272.60981531690913) rotate(0 19.47612265294344 15.556663964293477)"><path d="M-0.98 -0.78 C5.4 4.39, 31.33 26.62, 37.77 31.89 M0.7 1.43 C7.5 6.16, 33.39 24.98, 39.94 30.07" stroke="#000000" stroke-width="4" fill="none"></path></g><g transform="translate(694.0321360351376 272.60981531690913) rotate(0 19.47612265294344 15.556663964293477)"><path d="M14.77 21.14 C23.14 22.99, 27.5 28.03, 41.11 31.71 M15.12 22.57 C24.92 24.85, 33.6 28.18, 40.59 30.71" stroke="#000000" stroke-width="4" fill="none"></path></g><g transform="translate(694.0321360351376 272.60981531690913) rotate(0 19.47612265294344 15.556663964293477)"><path d="M24.99 7.49 C30.87 12.72, 32.64 21.22, 41.11 31.71 M25.33 8.92 C31.16 16.43, 35.94 24.99, 40.59 30.71" stroke="#000000" stroke-width="4" fill="none"></path></g></g><g transform="translate(746.5808293269231 294.43149038461536) rotate(0 76.5 12.5)"><text x="76.5" y="18" font-family="Virgil, Segoe UI Emoji" font-size="20px" fill="#000000" text-anchor="middle" style="white-space: pre;" direction="ltr">&lt; 30 (40) dBZ</text></g><g stroke-linecap="round"><g transform="translate(915.4239212819591 304.51976801379953) rotate(0 24.090301095321735 -0.2632462096460131)"><path d="M-0.67 -0.74 C7.57 -0.96, 40.75 -1.83, 48.85 -2.01 M1.19 1.48 C9.39 1.42, 40.7 -0.68, 48.36 -1.1" stroke="#000000" stroke-width="4" fill="none"></path></g><g transform="translate(915.4239212819591 304.51976801379953) rotate(0 24.090301095321735 -0.2632462096460131)"><path d="M25.13 9.94 C30.03 6.11, 35.95 4.49, 48.23 -0.43 M26.18 8.02 C32.09 6.73, 38.86 3.98, 49.23 -0.21" stroke="#000000" stroke-width="4" fill="none"></path></g><g transform="translate(915.4239212819591 304.51976801379953) rotate(0 24.090301095321735 -0.2632462096460131)"><path d="M24.13 -6.44 C29.2 -6.09, 35.37 -3.54, 48.23 -0.43 M25.19 -8.35 C31.48 -5.35, 38.51 -3.79, 49.23 -0.21" stroke="#000000" stroke-width="4" fill="none"></path></g></g><g transform="translate(971.7605168269231 277.64242788461536) rotate(0 34 22.5)"><text x="34" y="32" font-family="Virgil, Segoe UI Emoji" font-size="36px" fill="#c92a2a" text-anchor="middle" style="white-space: pre;" direction="ltr">SCC</text></g><g stroke-linecap="round"><g transform="translate(355.9362980769231 268.43930288461536) rotate(0 0.606731121158191 97.65134794198906)"><path d="M-0.38 -0.58 C-0.31 31.67, 0.22 161.71, 0.56 194.26 M1.61 1.73 C1.52 34.13, -0.38 164.06, -0.4 195.89" stroke="#000000" stroke-width="4" fill="none"></path></g></g><g stroke-linecap="round"><g transform="translate(355.80192265615153 465.1890504226368) rotate(0 37.92590491817333 -1.553419514763391)"><path d="M0.52 -0.03 C13.26 -0.28, 63.93 -1.08, 76.51 -1.52 M-0.66 -1.1 C11.92 -1.65, 63.05 -3.03, 75.68 -3.07" stroke="#000000" stroke-width="4" fill="none"></path></g><g transform="translate(355.80192265615153 465.1890504226368) rotate(0 37.92590491817333 -1.553419514763391)"><path d="M47.61 8.05 C58.18 3.76, 64.99 2.31, 74.96 -1.76 M47.58 7.73 C54.16 5.9, 59.11 2.78, 75.08 -3.52" stroke="#000000" stroke-width="4" fill="none"></path></g><g transform="translate(355.80192265615153 465.1890504226368) rotate(0 37.92590491817333 -1.553419514763391)"><path d="M47.26 -12.47 C57.92 -10.39, 64.84 -5.47, 74.96 -1.76 M47.22 -12.78 C53.76 -10.21, 58.78 -8.92, 75.08 -3.52" stroke="#000000" stroke-width="4" fill="none"></path></g></g><g transform="translate(443.6706730769231 444.85336538461536) rotate(0 84 12.5)"><text x="84" y="18" font-family="Virgil, Segoe UI Emoji" font-size="20px" fill="#000000" text-anchor="middle" style="white-space: pre;" direction="ltr">contiguous areas</text></g><g stroke-linecap="round"><g transform="translate(620.0751782843431 425.1750757469749) rotate(322.7114127926438 42.054546510555014 9.13287809690297)"><path d="M0.61 0.27 C14.68 3.32, 70.74 14.53, 84.64 17.4 M-0.53 -0.64 C13.44 2.7, 70.19 15.67, 84.16 18.91" stroke="#000000" stroke-width="4" fill="none"></path></g><g transform="translate(620.0751782843431 425.1750757469749) rotate(322.7114127926438 42.054546510555014 9.13287809690297)"><path d="M54.83 24.09 C63.84 21.63, 73.47 20.57, 82.53 17.97 M53.72 21.98 C66.48 20.72, 78.39 19.04, 84.82 19.51" stroke="#000000" stroke-width="4" fill="none"></path></g><g transform="translate(620.0751782843431 425.1750757469749) rotate(322.7114127926438 42.054546510555014 9.13287809690297)"><path d="M59.43 4.09 C66.81 8.05, 74.97 13.39, 82.53 17.97 M58.33 1.98 C69.23 8.64, 79.32 14.89, 84.82 19.51" stroke="#000000" stroke-width="4" fill="none"></path></g></g><g stroke-linecap="round"><g transform="translate(625.5906604966755 456.7187169201908) rotate(0 37.95784027327708 13.574600726421181)"><path d="M0.27 0.9 C13.25 5.27, 64.17 22.49, 76.97 26.82 M-1.05 0.33 C11.85 4.26, 63.1 20.15, 75.99 24.82" stroke="#000000" stroke-width="4" fill="none"></path></g><g transform="translate(625.5906604966755 456.7187169201908) rotate(0 37.95784027327708 13.574600726421181)"><path d="M47.5 25.57 C53.03 25.42, 59.8 23.59, 75.05 26.75 M45.4 25.95 C54.18 26.01, 62.57 26.03, 76.6 25.28" stroke="#000000" stroke-width="4" fill="none"></path></g><g transform="translate(625.5906604966755 456.7187169201908) rotate(0 37.95784027327708 13.574600726421181)"><path d="M53.97 6.09 C58.16 10.28, 63.5 12.78, 75.05 26.75 M51.87 6.48 C58.79 12.08, 65.32 17.69, 76.6 25.28" stroke="#000000" stroke-width="4" fill="none"></path></g></g><g transform="translate(710.2058293269231 384.62680288461536) rotate(0 102 12.5)"><text x="102" y="18" font-family="Virgil, Segoe UI Emoji" font-size="20px" fill="#000000" text-anchor="middle" style="white-space: pre;" direction="ltr">&gt;= 800 (1000) km^2</text></g><g transform="translate(709.7761418269231 472.36508413461536) rotate(0 97 12.5)"><text x="97" y="18" font-family="Virgil, Segoe UI Emoji" font-size="20px" fill="#000000" text-anchor="middle" style="white-space: pre;" direction="ltr">&lt; 800 (1000) km^2</text></g><g stroke-linecap="round"><g transform="translate(926.5303770994051 392.8879495912096) rotate(0 20.28512751944362 0.5142876568978068)"><path d="M-0.96 0.29 C6.1 0.52, 34.19 1.46, 41.53 1.63 M0.74 -0.6 C7.69 -0.7, 33.36 0.12, 40.39 0.12" stroke="#000000" stroke-width="4" fill="none"></path></g><g transform="translate(926.5303770994051 392.8879495912096) rotate(0 20.28512751944362 0.5142876568978068)"><path d="M21.08 6.35 C27.06 7.52, 31.06 2.08, 39.03 -1.68 M20.53 6.73 C27.9 4.26, 34.82 2.75, 41.13 -0.32" stroke="#000000" stroke-width="4" fill="none"></path></g><g transform="translate(926.5303770994051 392.8879495912096) rotate(0 20.28512751944362 0.5142876568978068)"><path d="M21.32 -7.98 C27.28 -3.51, 31.22 -5.65, 39.03 -1.68 M20.76 -7.6 C28.07 -5.16, 34.9 -1.76, 41.13 -0.32" stroke="#000000" stroke-width="4" fill="none"></path></g></g><g transform="translate(977.3116270994051 367.38656850961536) rotate(0 36.5 22.5)"><text x="36.5" y="32" font-family="Virgil, Segoe UI Emoji" font-size="36px" fill="#c92a2a" text-anchor="middle" style="white-space: pre;" direction="ltr">WCC</text></g><g stroke-linecap="round"><g transform="translate(916.8930003044411 483.78408300162744) rotate(0 25.39885314591224 0.17134582690965772)"><path d="M-0.36 1.16 C8.32 1.25, 42.96 1.17, 51.16 0.84 M1.65 0.72 C10.37 0.45, 42.59 -0.74, 50.84 -0.85" stroke="#000000" stroke-width="4" fill="none"></path></g><g transform="translate(916.8930003044411 483.78408300162744) rotate(0 25.39885314591224 0.17134582690965772)"><path d="M29.52 10.3 C34.06 4.49, 36.45 2.55, 51.69 -0.78 M28.13 8.02 C35.83 5.91, 43.48 1.97, 51.06 0.12" stroke="#000000" stroke-width="4" fill="none"></path></g><g transform="translate(916.8930003044411 483.78408300162744) rotate(0 25.39885314591224 0.17134582690965772)"><path d="M29.07 -6.78 C33.75 -8.83, 36.24 -7, 51.69 -0.78 M27.68 -9.07 C35.52 -5.61, 43.31 -3.99, 51.06 0.12" stroke="#000000" stroke-width="4" fill="none"></path></g></g><g transform="translate(975.1475645994051 464.17953725961536) rotate(0 83.5 17.5)"><text x="83.5" y="25" font-family="Virgil, Segoe UI Emoji" font-size="28px" fill="#000000" text-anchor="middle" style="white-space: pre;" direction="ltr">DCC or SCC</text></g><g stroke-linecap="round"><g transform="translate(1069.013363037459 393.55168839392184) rotate(0 59.36310435503441 0.20493261145497854)"><path d="M-1.09 1.06 C18.72 1.13, 99.8 -0.26, 119.81 -0.65" stroke="#495057" stroke-width="4.5" fill="none" stroke-dasharray="1.5 10"></path></g></g><g stroke-linecap="round"><g transform="translate(1193.0835336538462 391.76592548076917) rotate(0 2.277749036897319 73.89389227919565)"><path d="M-0.6 0.24 C0.14 24.99, 4.12 123.02, 5.16 147.55" stroke="#495057" stroke-width="4.5" fill="none" stroke-dasharray="1.5 10"></path></g></g><g stroke-linecap="round"><g transform="translate(1191.6581522431227 537.884596033423) rotate(0 -417.280413308256 5.978312867695763)"><path d="M0.35 0.19 C-138.94 2.19, -695.71 9.81, -834.92 11.77" stroke="#495057" stroke-width="4.5" fill="none" stroke-dasharray="1.5 10"></path></g></g><g stroke-linecap="round"><g transform="translate(355.47406528519053 557.0389372680169) rotate(0 0.7129994606886498 20.501361527200572)"><path d="M-0.78 -0.44 C-0.51 6.5, 1.84 34.6, 2.2 41.45" stroke="#495057" stroke-width="4.5" fill="none" stroke-dasharray="1.5 10"></path></g></g><g stroke-linecap="round"><g transform="translate(358.23306145270124 600.4579648196227) rotate(0 41.77514051881212 0.21720744590356844)"><path d="M0 -0.88 C14.1 -0.8, 70.68 -0.45, 85.01 -0.36 M-1.46 1.27 C12.39 1.54, 69.29 0.78, 83.78 0.65" stroke="#000000" stroke-width="4" fill="none"></path></g><g transform="translate(358.23306145270124 600.4579648196227) rotate(0 41.77514051881212 0.21720744590356844)"><path d="M54.23 10.32 C63.54 8.43, 73.02 5.1, 84.33 0.64 M55.73 11.3 C65.08 7.65, 73.73 5.13, 83.14 0.16" stroke="#000000" stroke-width="4" fill="none"></path></g><g transform="translate(358.23306145270124 600.4579648196227) rotate(0 41.77514051881212 0.21720744590356844)"><path d="M54 -10.2 C63.25 -5.2, 72.8 -1.64, 84.33 0.64 M55.51 -9.22 C64.84 -6.46, 73.56 -2.58, 83.14 0.16" stroke="#000000" stroke-width="4" fill="none"></path></g></g><g transform="translate(453.01292067307713 587.2977764423074) rotate(0 193.5 12.5)"><text x="193.5" y="18" font-family="Virgil, Segoe UI Emoji" font-size="20px" fill="#000000" text-anchor="middle" style="white-space: pre;" direction="ltr">DCC points embedded within WCC areas</text></g><g stroke-linecap="round"><g transform="translate(854.1613581730771 598.5379408346698) rotate(0 51.200057334209276 0.8036620081647357)"><path d="M0.96 0.81 C17.88 0.94, 85.34 0.06, 102.4 0.08 M0 0.19 C16.67 0.56, 84.22 1.71, 101.38 1.5" stroke="#000000" stroke-width="4" fill="none"></path></g><g transform="translate(854.1613581730771 598.5379408346698) rotate(0 51.200057334209276 0.8036620081647357)"><path d="M74.49 11.41 C83.41 8.93, 95.42 2.92, 102.62 0.04 M72.29 10.85 C79.1 9.41, 84.61 6.77, 102.05 1.95" stroke="#000000" stroke-width="4" fill="none"></path></g><g transform="translate(854.1613581730771 598.5379408346698) rotate(0 51.200057334209276 0.8036620081647357)"><path d="M74.58 -9.11 C83.34 -3.9, 95.33 -2.22, 102.62 0.04 M72.39 -9.67 C79.22 -6.97, 84.72 -5.46, 102.05 1.95" stroke="#000000" stroke-width="4" fill="none"></path></g></g><g transform="translate(965.584435096154 572.7821514423076) rotate(0 50.5 22.5)"><text x="50.5" y="32" font-family="Virgil, Segoe UI Emoji" font-size="36px" fill="#c92a2a" text-anchor="middle" style="white-space: pre;" direction="ltr">DWCC</text></g><g stroke-linecap="round"><g transform="translate(131.8885244251444 376.6725405079387) rotate(0 -0.2742172176764939 168.7469846661832)"><path d="M0.05 -1.15 C0.36 55.17, 0.65 282.16, 0.84 338.64 M-1.39 0.86 C-1.11 56.78, -0.27 280.55, 0.09 336.9" stroke="#000000" stroke-width="4" fill="none"></path></g></g><g stroke-linecap="round"><g transform="translate(131.32342852672502 721.5955480936207) rotate(0 91.49944376068362 -0.7866602655365114)"><path d="M-1.15 0.38 C29.42 0.34, 153.42 0.13, 184.15 -0.21 M0.45 -0.47 C30.86 -0.86, 153.26 -1.9, 183.58 -1.95" stroke="#000000" stroke-width="4" fill="none"></path></g><g transform="translate(131.32342852672502 721.5955480936207) rotate(0 91.49944376068362 -0.7866602655365114)"><path d="M156.08 9.67 C166.75 4.67, 174.4 0.99, 184.39 -1.11 M155.58 9.44 C161.57 6.03, 168.6 2.74, 184.26 -1.52" stroke="#000000" stroke-width="4" fill="none"></path></g><g transform="translate(131.32342852672502 721.5955480936207) rotate(0 91.49944376068362 -0.7866602655365114)"><path d="M155.96 -10.85 C166.69 -8.49, 174.37 -4.8, 184.39 -1.11 M155.46 -11.08 C161.65 -9.95, 168.71 -8.69, 184.26 -1.52" stroke="#000000" stroke-width="4" fill="none"></path></g></g><g transform="translate(327.1980168269231 705.1346153846154) rotate(0 84 12.5)"><text x="84" y="18" font-family="Virgil, Segoe UI Emoji" font-size="20px" fill="#000000" text-anchor="middle" style="white-space: pre;" direction="ltr">contiguous areas</text></g><g transform="translate(58.74188701923072 740.0955528846154) rotate(0 90.5 25)"><text x="90.5" y="18" font-family="Virgil, Segoe UI Emoji" font-size="20px" fill="#364fc7" text-anchor="middle" style="white-space: pre;" direction="ltr">masked stratiform</text><text x="90.5" y="43" font-family="Virgil, Segoe UI Emoji" font-size="20px" fill="#364fc7" text-anchor="middle" style="white-space: pre;" direction="ltr">(&gt; 0dBZ)</text></g><g stroke-linecap="round"><g transform="translate(507.2940173110724 691.201420141305) rotate(322.7114127926438 49.98212107085308 18.678708572318953)"><path d="M-0.34 0.08 C15.92 6.38, 81.42 30.6, 97.93 36.95 M1.68 -0.92 C18.3 5.62, 84.23 32.07, 100.31 38.28" stroke="#000000" stroke-width="4" fill="none"></path></g><g transform="translate(507.2940173110724 691.201420141305) rotate(322.7114127926438 49.98212107085308 18.678708572318953)"><path d="M70.45 36.39 C79.6 38.15, 91.65 37.32, 101.29 39.95 M70.22 37.48 C77.75 37.94, 84.91 37.22, 100.4 37.73" stroke="#000000" stroke-width="4" fill="none"></path></g><g transform="translate(507.2940173110724 691.201420141305) rotate(322.7114127926438 49.98212107085308 18.678708572318953)"><path d="M77.99 17.3 C84.5 25.37, 94.05 30.88, 101.29 39.95 M77.76 18.39 C83.28 23.53, 88.61 27.45, 100.4 37.73" stroke="#000000" stroke-width="4" fill="none"></path></g></g><g stroke-linecap="round"><g transform="translate(508.3021022708161 724.9654099703424) rotate(0 49.620319025562324 15.423318665280078)"><path d="M0.08 -0.65 C16.98 4.66, 83.62 26.25, 100.58 31.5 M-1.34 1.63 C15.45 6.57, 82.28 24.43, 99.42 29.47" stroke="#000000" stroke-width="4" fill="none"></path></g><g transform="translate(508.3021022708161 724.9654099703424) rotate(0 49.620319025562324 15.423318665280078)"><path d="M68.43 31.11 C76.7 32.66, 82.47 31.68, 101.09 28.33 M69.52 31.93 C76.17 31.35, 81.49 30.94, 98.87 28.81" stroke="#000000" stroke-width="4" fill="none"></path></g><g transform="translate(508.3021022708161 724.9654099703424) rotate(0 49.620319025562324 15.423318665280078)"><path d="M73.95 11.35 C80.9 17.43, 85.4 20.99, 101.09 28.33 M75.04 12.16 C80.65 15.7, 84.83 19.41, 98.87 28.81" stroke="#000000" stroke-width="4" fill="none"></path></g></g><g transform="translate(616.6399273510638 669.7107872596154) rotate(0 130 12.5)"><text x="130" y="18" font-family="Virgil, Segoe UI Emoji" font-size="20px" fill="#000000" text-anchor="middle" style="white-space: pre;" direction="ltr">&gt;= 40,000 (50,000) km^2</text></g><g transform="translate(616.4328961010638 746.7810997596154) rotate(0 130 12.5)"><text x="130" y="18" font-family="Virgil, Segoe UI Emoji" font-size="20px" fill="#000000" text-anchor="middle" style="white-space: pre;" direction="ltr">&lt; 40,000 (50,000)  km^2</text></g><g stroke-linecap="round"><g transform="translate(886.1706730769231 681.2099718648309) rotate(0 43.41442369025198 0.5630014575592668)"><path d="M0.97 0.2 C15.59 0.22, 72.52 0.41, 86.81 0.34 M0.02 -0.75 C14.65 -0.53, 71.98 1.62, 86.38 1.87" stroke="#000000" stroke-width="4" fill="none"></path></g><g transform="translate(886.1706730769231 681.2099718648309) rotate(0 43.41442369025198 0.5630014575592668)"><path d="M58.24 12.97 C64.26 10.47, 69.69 6.51, 87.82 1.04 M58.25 11.69 C68.51 7, 78.49 4.34, 85.73 2.04" stroke="#000000" stroke-width="4" fill="none"></path></g><g transform="translate(886.1706730769231 681.2099718648309) rotate(0 43.41442369025198 0.5630014575592668)"><path d="M58.82 -7.54 C64.74 -5.44, 70.04 -4.8, 87.82 1.04 M58.84 -8.82 C68.73 -5.88, 78.49 -0.89, 85.73 2.04" stroke="#000000" stroke-width="4" fill="none"></path></g></g><g transform="translate(980.8855168269231 655.3143028846154) rotate(0 36 22.5)"><text x="36" y="32" font-family="Virgil, Segoe UI Emoji" font-size="36px" fill="#364fc7" text-anchor="middle" style="white-space: pre;" direction="ltr">BSR</text></g><g stroke-linecap="round"><g transform="translate(886.5163762019231 758.9890956223306) rotate(0 42.952253181422094 -1.1138871934160761)"><path d="M0.56 0.25 C14.83 0.01, 72.08 -0.39, 86.51 -0.92 M-0.6 -0.66 C13.48 -1.26, 71.24 -2.25, 85.85 -2.48" stroke="#000000" stroke-width="4" fill="none"></path></g><g transform="translate(886.5163762019231 758.9890956223306) rotate(0 42.952253181422094 -1.1138871934160761)"><path d="M58.26 9.17 C70.01 6.11, 77.18 -0.7, 84.27 -2.43 M57.68 7.29 C63.61 5.95, 70.57 3.17, 86.47 -1.67" stroke="#000000" stroke-width="4" fill="none"></path></g><g transform="translate(886.5163762019231 758.9890956223306) rotate(0 42.952253181422094 -1.1138871934160761)"><path d="M57.91 -11.35 C69.88 -6.76, 77.18 -5.9, 84.27 -2.43 M57.33 -13.22 C63.41 -9.79, 70.44 -7.79, 86.47 -1.67" stroke="#000000" stroke-width="4" fill="none"></path></g></g><g transform="translate(976.8308293269231 742.0525841346154) rotate(0 44 17.5)"><text x="44" y="25" font-family="Virgil, Segoe UI Emoji" font-size="28px" fill="#000000" text-anchor="middle" style="white-space: pre;" direction="ltr">others</text></g></svg>