<svg version="1.1" xmlns="http://www.w3.org/2000/svg" viewBox="0 0 1200.2016765476708 787.0525841346154" width="3600.605029643012" height="2361.157752403846">
  <!-- svg-source:excalidraw -->
  
  <defs>
    <style>
      @font-face {
        font-family: "Virgil";
        src: url("https://excalidraw.com/Virgil.woff2");
      }
      @font-face {
        font-family: "Cascadia";
        src: url("https://excalidraw.com/Cascadia.woff2");
      }
    </style>
  </defs>
  <g stroke-linecap="round" transform="translate(10 178.67788461538464) rotate(0 160.1912560096154 108.69140624999994)"><path d="M-0.37 1.32 C78.12 -0.54, 159.09 -0.16, 321.52 -0.92 M-0.24 0.62 C83.87 -0.39, 168.42 -0.29, 319.93 -0.6 M320.87 1.03 C318.85 66.61, 320.16 131.37, 318.89 218.98 M320.16 0.81 C318.89 74.9, 318.51 147.68, 320.62 217.25 M321.75 218.75 C224.61 215.68, 127.72 215.38, -0.51 217.8 M320.49 216.99 C234.69 218.39, 148.84 218.67, -0.26 217.4 M0.43 218.52 C2.99 136.98, 0.86 53.88, -1.16 -0.58 M-0.76 217.6 C1.41 169.96, 0.79 122.71, 0.15 -0.47" stroke="#000000" stroke-width="2" fill="none"></path></g><g stroke-linecap="round" transform="translate(178.6510678577714 314.93653769231565) rotate(343.45389414218005 59.034026691384696 31.130636179397726)"><path d="M12.53 12.22 C12.53 12.22, 12.53 12.22, 12.53 12.22 M12.53 12.22 C12.53 12.22, 12.53 12.22, 12.53 12.22 M3.48 28.75 C8.38 22.23, 13.05 19, 19.22 10.02 M2.05 29.93 C5.48 25.89, 9.2 20.51, 20.67 8.03 M3.41 33.56 C10.07 29.7, 13.67 18.97, 28.37 2.69 M4.01 35.71 C9.6 27.5, 14.42 22.8, 29.25 3.85 M5.7 37.04 C15.47 28.88, 23.17 19.02, 36.39 0.82 M5.25 39.62 C16.77 26.73, 27.73 13.14, 37.43 1.57 M5.73 41.82 C14.81 34.54, 23.86 24.64, 41.83 0.92 M7.55 42.52 C21.36 27.43, 34.61 12.34, 43.51 2.39 M9.14 46.41 C19.42 33.12, 32.23 18.39, 46.67 0.96 M9.52 46.59 C22.41 29.69, 37.44 13.31, 47.47 2.18 M13.54 50.37 C22.05 39.96, 29.59 28.35, 52.04 0.01 M13.18 48.92 C25.57 34.24, 38.13 20.68, 52.68 0.58 M16.22 50.3 C27.76 40.31, 39.79 24.09, 59.96 -0.25 M15.76 51.15 C32 33.88, 46.19 15.12, 58.55 1.1 M19.81 52.45 C36.87 33.55, 48.88 17.18, 64.96 -0.42 M20.24 52.51 C31.09 38.96, 45.03 23.53, 64.2 1.7 M23.96 56.25 C32.09 44.79, 43.68 33.15, 71.76 1.61 M23.04 54.92 C36.01 38.74, 49.28 24.59, 69.04 0.36 M25.02 57.61 C41.76 41.12, 51.91 24.4, 75.07 2.81 M26.67 56.87 C39.44 43.02, 50.52 28.14, 72.57 2.76 M30.44 57.53 C41.3 45.99, 53.9 32.52, 76.39 3.72 M32.03 57.47 C49.29 37.31, 67 17.29, 78.18 3.48 M35.08 61.14 C47.84 45.56, 60.42 34.19, 80.63 4.38 M33.84 60.08 C51.48 40.25, 70.18 20.02, 81.64 5.49 M38.89 61.98 C57.93 40.78, 74.07 18.8, 86.23 8.03 M40.1 60.11 C55.29 41.1, 73.54 21.08, 86.31 6.41 M43.33 62.12 C57.09 47.63, 67.55 33.27, 90.35 7.75 M43.63 61.67 C55.93 47.69, 65.98 35.09, 90.22 8.63 M46.99 62.17 C67.86 41.73, 82.78 23.17, 95.15 10.76 M49.59 63.11 C66.65 40.81, 86.07 20.42, 95.33 10.13 M54.64 64.16 C63.41 48.05, 75.13 36.2, 101.44 7.69 M53.51 62.43 C64.14 49.15, 77 36.01, 99.19 9.37 M56.25 62.77 C68.14 48.56, 79.72 35.64, 104.52 12.46 M58.26 64.02 C74.96 44.4, 91.62 26, 101.68 11.6 M62.65 65.17 C76.45 50.44, 89.3 34.8, 104.29 13.75 M62.72 63.11 C74 51.03, 85.87 39.04, 107.16 13.94 M69.26 62.14 C82.82 44.49, 98.17 29.53, 107.85 16.93 M71.46 62.31 C85.87 44.98, 101.56 26.13, 109.97 17.76 M77.1 58.31 C87.82 48.47, 95.23 39.54, 113.01 18.5 M76.7 58.47 C87.04 48.72, 97.4 37.45, 111.99 18.75 M85.15 58.51 C92.68 50.73, 99.66 40.58, 113.42 20.49 M84.65 58.5 C92.35 48.38, 101.88 39.7, 114.64 21.77 M91.31 57.56 C100.26 47.11, 107.76 39.14, 116.86 23.01 M91.46 55.75 C96.71 50.04, 102.72 43.05, 119.25 24.96 M96.2 56.37 C103.01 48.78, 110.82 40.63, 117.05 32.05 M94.97 57.58 C102.52 49.98, 106.84 44.03, 117.71 32.07 M106.41 48.47 C109.63 44.75, 113.33 42.78, 114.9 39.9 M106.75 49.78 C110.74 46.51, 113.68 42.53, 115.52 40.25" stroke="#fa5252" stroke-width="0.5" fill="none"></path><path d="M36.88 1.34 C46.02 -0.94, 60.13 -0.51, 70.49 0.72 C80.84 1.95, 91.19 4.83, 99.02 8.72 C106.86 12.61, 114.9 18.43, 117.49 24.07 C120.08 29.72, 118.43 37.4, 114.59 42.58 C110.75 47.76, 102.97 51.74, 94.43 55.15 C85.89 58.57, 73.76 62.62, 63.36 63.08 C52.96 63.54, 41.39 60.82, 32.02 57.92 C22.65 55.02, 12.43 50.52, 7.13 45.66 C1.83 40.81, -0.63 34.32, 0.23 28.81 C1.08 23.29, 5.7 17.12, 12.25 12.55 C18.79 7.98, 34.5 3.01, 39.49 1.4 C44.48 -0.21, 41.86 2.35, 42.21 2.89 M36.14 2.27 C45.22 0.2, 59.31 0.96, 69.99 1.83 C80.67 2.69, 92.33 3.95, 100.23 7.46 C108.12 10.96, 114.86 17.35, 117.36 22.84 C119.86 28.32, 118.97 35.04, 115.21 40.37 C111.45 45.69, 103.19 50.93, 94.78 54.79 C86.36 58.65, 75.6 62.79, 64.73 63.52 C53.86 64.24, 39 61.96, 29.57 59.15 C20.14 56.34, 13.15 51.84, 8.15 46.66 C3.15 41.47, -0.98 33.87, -0.44 28.02 C0.09 22.17, 4.81 15.98, 11.35 11.54 C17.88 7.09, 34.16 2.61, 38.77 1.35 C43.38 0.08, 39.07 3.55, 39.02 3.94" stroke="#c92a2a" stroke-width="1" fill="none"></path></g><g transform="translate(11.651141826923094 10) rotate(0 585.5 22.5)"><text x="0" y="32" font-family="Virgil, Segoe UI Emoji" font-size="36px" fill="#000000" text-anchor="start" style="white-space: pre;" direction="ltr">Storm Mode Classification based on 3D Radar Reflectivity (dBZ)</text></g><g transform="translate(32.134314903846075 106.32632211538464) rotate(0 224.5 17.5)"><text x="0" y="25" font-family="Virgil, Segoe UI Emoji" font-size="28px" fill="#000000" text-anchor="start" style="white-space: pre;" direction="ltr">Start from max. composite dBZ:</text></g><g transform="translate(16.32572115384619 202.89242788461536) rotate(0 148.5 35)"><text x="148.5" y="25" font-family="Virgil, Segoe UI Emoji" font-size="28px" fill="#c92a2a" text-anchor="middle" style="white-space: pre;" direction="ltr">&gt;= 30 (40) dBZ &amp;</text><text x="148.5" y="60" font-family="Virgil, Segoe UI Emoji" font-size="28px" fill="#c92a2a" text-anchor="middle" style="white-space: pre;" direction="ltr">masked as convective</text></g><g stroke-linecap="round"><g transform="translate(154.27073398850348 277.02660647159564) rotate(0 26.72095036431756 19.62580265777342)"><path d="M-0.77 0.97 C8.18 7.12, 45.33 31.24, 54.21 37.58 M1.03 0.43 C9.85 6.68, 44.68 32.7, 53.66 38.83" stroke="#c92a2a" stroke-width="1" fill="none"></path></g><g transform="translate(154.27073398850348 277.02660647159564) rotate(0 26.72095036431756 19.62580265777342)"><path d="M26.38 31.96 C33.74 32.07, 46.02 38.1, 51.78 37.85 M25.72 30.65 C32.84 32.52, 41.68 36.04, 53.37 38.61" stroke="#c92a2a" stroke-width="1" fill="none"></path></g><g transform="translate(154.27073398850348 277.02660647159564) rotate(0 26.72095036431756 19.62580265777342)"><path d="M38.36 15.3 C41.72 21.01, 49.91 32.73, 51.78 37.85 M37.7 13.98 C41.48 20.45, 47.02 28.58, 53.37 38.61" stroke="#c92a2a" stroke-width="1" fill="none"></path></g></g><g stroke-linecap="round"><g transform="translate(346.56561139768223 267.8767438086012) rotate(0 38.83910230893068 -2.164342295564694)"><path d="M-0.23 0.1 C13.21 -0.74, 66.38 -3.58, 79.49 -4.43 M-1.81 -0.89 C11.6 -1.59, 64.93 -2.39, 78.72 -2.91" stroke="#000000" stroke-width="4" fill="none"></path></g><g transform="translate(346.56561139768223 267.8767438086012) rotate(0 38.83910230893068 -2.164342295564694)"><path d="M50.97 8.63 C56.37 4.69, 61.06 3.98, 78.15 -2.75 M50.6 8.41 C60.46 4.89, 71.11 0.23, 77.74 -3.56" stroke="#000000" stroke-width="4" fill="none"></path></g><g transform="translate(346.56561139768223 267.8767438086012) rotate(0 38.83910230893068 -2.164342295564694)"><path d="M50.45 -11.89 C56.06 -11.65, 60.86 -8.18, 78.15 -2.75 M50.08 -12.11 C60.26 -8.06, 71.1 -5.16, 77.74 -3.56" stroke="#000000" stroke-width="4" fill="none"></path></g></g><g transform="translate(437.2475961538462 243.47836538461536) rotate(0 102 12.5)"><text x="102" y="18" font-family="Virgil, Segoe UI Emoji" font-size="20px" fill="#000000" text-anchor="middle" style="white-space: pre;" direction="ltr">find 8 (10) km Height</text></g><g stroke-linecap="round"><g transform="translate(649.5082161817086 228.1578834764435) rotate(322.7114127926438 47.721542598519406 3.084447208254943)"><path d="M-0.44 -0.65 C15.04 0.46, 77.71 5.8, 93.62 6.82 M1.53 1.62 C17.32 2.36, 80.38 4.14, 95.88 4.93" stroke="#000000" stroke-width="4" fill="none"></path></g><g transform="translate(649.5082161817086 228.1578834764435) rotate(322.7114127926438 47.721542598519406 3.084447208254943)"><path d="M66.24 12.69 C78.44 11.81, 86.6 9, 96.35 4.56 M67.42 13.56 C74.13 11.55, 78.73 9.56, 95.57 4.05" stroke="#000000" stroke-width="4" fill="none"></path></g><g transform="translate(649.5082161817086 228.1578834764435) rotate(322.7114127926438 47.721542598519406 3.084447208254943)"><path d="M67.02 -7.81 C78.96 -1.25, 86.84 3.39, 96.35 4.56 M68.2 -6.95 C74.77 -4.68, 79.21 -2.39, 95.57 4.05" stroke="#000000" stroke-width="4" fill="none"></path></g></g><g transform="translate(752.2983774038462 185.08774038461536) rotate(0 81.5 12.5)"><text x="81.5" y="18" font-family="Virgil, Segoe UI Emoji" font-size="20px" fill="#000000" text-anchor="middle" style="white-space: pre;" direction="ltr">&gt;= 30 (40) dBZ</text></g><g stroke-linecap="round"><g transform="translate(928.9155649038462 193.96058334984667) rotate(0 20.411968799084406 0.9041169154248223)"><path d="M0.55 1.01 C7.08 1.45, 32.86 1.81, 39.31 1.75 M-0.62 0.49 C6.26 0.68, 34.42 -0.14, 41.44 0.09" stroke="#000000" stroke-width="4" fill="none"></path></g><g transform="translate(928.9155649038462 193.96058334984667) rotate(0 20.411968799084406 0.9041169154248223)"><path d="M24.14 5.2 C29.88 2.85, 33.98 2.03, 39.65 0.64 M23.18 7.08 C26.53 6.21, 32.91 3.19, 41.77 -0.54" stroke="#000000" stroke-width="4" fill="none"></path></g><g transform="translate(928.9155649038462 193.96058334984667) rotate(0 20.411968799084406 0.9041169154248223)"><path d="M24.12 -8.63 C29.76 -6.68, 33.87 -3.2, 39.65 0.64 M23.16 -6.74 C26.54 -4.04, 32.93 -3.48, 41.77 -0.54" stroke="#000000" stroke-width="4" fill="none"></path></g></g><g transform="translate(978.1147836538462 169.36508413461536) rotate(0 37 22.5)"><text x="37" y="32" font-family="Virgil, Segoe UI Emoji" font-size="36px" fill="#c92a2a" text-anchor="middle" style="white-space: pre;" direction="ltr">DCC</text></g><g stroke-linecap="round"><g transform="translate(661.7486835688132 249.7928190283826) rotate(0 38.98425862187852 18.681638210553245)"><path d="M-0.98 -0.78 C11.91 5.43, 63.84 31.82, 76.78 38.14 M0.7 1.43 C14 7.2, 65.91 30.19, 78.95 36.32" stroke="#000000" stroke-width="4" fill="none"></path></g><g transform="translate(661.7486835688132 249.7928190283826) rotate(0 38.98425862187852 18.681638210553245)"><path d="M47.75 32.28 C57.61 32.94, 63.5 36.74, 80.12 37.96 M48.09 33.71 C60.22 34.11, 71.23 35.57, 79.61 36.96" stroke="#000000" stroke-width="4" fill="none"></path></g><g transform="translate(661.7486835688132 249.7928190283826) rotate(0 38.98425862187852 18.681638210553245)"><path d="M56.23 13.6 C64.08 18.93, 67.83 27.47, 80.12 37.96 M56.58 15.03 C65.38 22.59, 73.13 31.2, 79.61 36.96" stroke="#000000" stroke-width="4" fill="none"></path></g></g><g transform="translate(759.4819711538462 281.93149038461536) rotate(0 76.5 12.5)"><text x="76.5" y="18" font-family="Virgil, Segoe UI Emoji" font-size="20px" fill="#000000" text-anchor="middle" style="white-space: pre;" direction="ltr">&lt; 30 (40) dBZ</text></g><g stroke-linecap="round"><g transform="translate(928.3250631088822 292.01976801379953) rotate(0 24.090301095321735 -0.2632462096460131)"><path d="M-0.67 -0.74 C7.57 -0.96, 40.75 -1.83, 48.85 -2.01 M1.19 1.48 C9.39 1.42, 40.7 -0.68, 48.36 -1.1" stroke="#000000" stroke-width="4" fill="none"></path></g><g transform="translate(928.3250631088822 292.01976801379953) rotate(0 24.090301095321735 -0.2632462096460131)"><path d="M25.13 9.94 C30.03 6.11, 35.95 4.49, 48.23 -0.43 M26.18 8.02 C32.09 6.73, 38.86 3.98, 49.23 -0.21" stroke="#000000" stroke-width="4" fill="none"></path></g><g transform="translate(928.3250631088822 292.01976801379953) rotate(0 24.090301095321735 -0.2632462096460131)"><path d="M24.13 -6.44 C29.2 -6.09, 35.37 -3.54, 48.23 -0.43 M25.19 -8.35 C31.48 -5.35, 38.51 -3.79, 49.23 -0.21" stroke="#000000" stroke-width="4" fill="none"></path></g></g><g transform="translate(984.6616586538462 265.14242788461536) rotate(0 34 22.5)"><text x="34" y="32" font-family="Virgil, Segoe UI Emoji" font-size="36px" fill="#c92a2a" text-anchor="middle" style="white-space: pre;" direction="ltr">SCC</text></g><g stroke-linecap="round"><g transform="translate(368.37653397338784 266.6110200829962) rotate(359.41360886175926 0.6144453533459284 92.31666863346629)"><path d="M-0.38 -0.58 C-0.22 29.89, 0.65 152.82, 1.08 183.59 M1.61 1.73 C1.61 32.35, 0.05 155.17, 0.12 185.22" stroke="#000000" stroke-width="4" fill="none"></path></g></g><g stroke-linecap="round"><g transform="translate(368.7030644830746 452.6890504226368) rotate(0 37.92590491817333 -2.336744163626861)"><path d="M0.52 -0.03 C13.26 -0.54, 63.93 -2.39, 76.51 -3.09 M-0.66 -1.1 C11.92 -1.91, 63.05 -4.34, 75.68 -4.64" stroke="#000000" stroke-width="4" fill="none"></path></g><g transform="translate(368.7030644830746 452.6890504226368) rotate(0 37.92590491817333 -2.336744163626861)"><path d="M47.84 7.05 C58.33 2.59, 65.08 0.96, 74.96 -3.33 M47.8 6.74 C54.34 4.78, 59.24 1.54, 75.08 -5.08" stroke="#000000" stroke-width="4" fill="none"></path></g><g transform="translate(368.7030644830746 452.6890504226368) rotate(0 37.92590491817333 -2.336744163626861)"><path d="M47.06 -13.45 C57.79 -11.56, 64.77 -6.82, 74.96 -3.33 M47.02 -13.77 C53.61 -11.32, 58.67 -10.15, 75.08 -5.08" stroke="#000000" stroke-width="4" fill="none"></path></g></g><g transform="translate(456.5718149038462 428.60336538461536) rotate(0 84 12.5)"><text x="84" y="18" font-family="Virgil, Segoe UI Emoji" font-size="20px" fill="#000000" text-anchor="middle" style="white-space: pre;" direction="ltr">contiguous areas</text></g><g stroke-linecap="round"><g transform="translate(634.2423585768064 409.8413320706535) rotate(322.7114127926438 38.41850215991657 10.061308637825732)"><path d="M0.61 0.27 C13.47 3.63, 64.68 16.08, 77.36 19.26 M-0.53 -0.64 C12.23 3.01, 64.13 17.22, 76.89 20.76" stroke="#000000" stroke-width="4" fill="none"></path></g><g transform="translate(634.2423585768064 409.8413320706535) rotate(322.7114127926438 38.41850215991657 10.061308637825732)"><path d="M47.43 24.66 C56.47 22.62, 66.14 21.97, 75.26 19.82 M46.32 22.56 C59.13 21.8, 71.09 20.63, 77.54 21.37" stroke="#000000" stroke-width="4" fill="none"></path></g><g transform="translate(634.2423585768064 409.8413320706535) rotate(322.7114127926438 38.41850215991657 10.061308637825732)"><path d="M52.88 4.88 C60.03 9.19, 67.95 14.86, 75.26 19.82 M51.78 2.77 C62.4 9.86, 72.19 16.53, 77.54 21.37" stroke="#000000" stroke-width="4" fill="none"></path></g></g><g stroke-linecap="round"><g transform="translate(638.3165087677957 436.8186232756841) rotate(0 34.92044677916395 11.232519105629422)"><path d="M0.27 0.9 C12.24 4.49, 59.11 18.59, 70.89 22.14 M-1.05 0.33 C10.84 3.48, 58.04 16.24, 69.92 20.13" stroke="#000000" stroke-width="4" fill="none"></path></g><g transform="translate(638.3165087677957 436.8186232756841) rotate(0 34.92044677916395 11.232519105629422)"><path d="M41.47 21.91 C46.99 21.54, 53.75 19.48, 68.98 22.06 M39.37 22.29 C48.14 22.06, 56.51 21.79, 70.53 20.6" stroke="#000000" stroke-width="4" fill="none"></path></g><g transform="translate(638.3165087677957 436.8186232756841) rotate(0 34.92044677916395 11.232519105629422)"><path d="M47.28 2.22 C51.6 6.23, 57.07 8.54, 68.98 22.06 M45.17 2.61 C52.27 7.98, 58.98 13.36, 70.53 20.6" stroke="#000000" stroke-width="4" fill="none"></path></g></g><g transform="translate(724.3569711538462 375.87680288461536) rotate(0 102 12.5)"><text x="102" y="18" font-family="Virgil, Segoe UI Emoji" font-size="20px" fill="#000000" text-anchor="middle" style="white-space: pre;" direction="ltr">&gt;= 800 (1000) km^2</text></g><g transform="translate(722.6772836538462 451.11508413461536) rotate(0 97 12.5)"><text x="97" y="18" font-family="Virgil, Segoe UI Emoji" font-size="20px" fill="#000000" text-anchor="middle" style="white-space: pre;" direction="ltr">&lt; 800 (1000) km^2</text></g><g stroke-linecap="round"><g transform="translate(940.6815189263282 382.0519599749524) rotate(0 19.66012751944362 0.06538450020127584)"><path d="M-0.96 0.29 C5.9 0.38, 33.15 0.79, 40.28 0.83 M0.74 -0.6 C7.48 -0.84, 32.31 -0.55, 39.14 -0.69" stroke="#000000" stroke-width="4" fill="none"></path></g><g transform="translate(940.6815189263282 382.0519599749524) rotate(0 19.66012751944362 0.06538450020127584)"><path d="M20.56 5.72 C26.37 6.85, 30.2 1.37, 37.78 -2.48 M20 6.1 C27.13 3.58, 33.8 2, 39.88 -1.12" stroke="#000000" stroke-width="4" fill="none"></path></g><g transform="translate(940.6815189263282 382.0519599749524) rotate(0 19.66012751944362 0.06538450020127584)"><path d="M20.51 -8.17 C26.37 -3.85, 30.21 -6.13, 37.78 -2.48 M19.96 -7.8 C27.11 -5.56, 33.79 -2.37, 39.88 -1.12" stroke="#000000" stroke-width="4" fill="none"></path></g></g><g transform="translate(990.2127689263282 354.88656850961536) rotate(0 36.5 22.5)"><text x="36.5" y="32" font-family="Virgil, Segoe UI Emoji" font-size="36px" fill="#c92a2a" text-anchor="middle" style="white-space: pre;" direction="ltr">WCC</text></g><g stroke-linecap="round"><g transform="translate(929.7941421313643 464.9360527909421) rotate(0 19.148853145912213 0.833675474856534)"><path d="M-0.36 1.16 C6.24 1.38, 32.54 1.85, 38.66 1.66 M1.65 0.72 C8.28 0.59, 32.17 -0.06, 38.34 -0.03" stroke="#000000" stroke-width="4" fill="none"></path></g><g transform="translate(929.7941421313643 464.9360527909421) rotate(0 19.148853145912213 0.833675474856534)"><path d="M22.62 8.47 C25.94 3.44, 27.24 2.05, 39.14 0.03 M21.32 6.33 C27.15 4.98, 32.92 1.92, 38.55 0.87" stroke="#000000" stroke-width="4" fill="none"></path></g><g transform="translate(929.7941421313643 464.9360527909421) rotate(0 19.148853145912213 0.833675474856534)"><path d="M22.45 -4.35 C25.84 -6.56, 27.18 -5.12, 39.14 0.03 M21.15 -6.49 C27.03 -3.66, 32.86 -2.55, 38.55 0.87" stroke="#000000" stroke-width="4" fill="none"></path></g></g><g transform="translate(975.5487064263282 447.92953725961536) rotate(0 83.5 17.5)"><text x="83.5" y="25" font-family="Virgil, Segoe UI Emoji" font-size="28px" fill="#000000" text-anchor="middle" style="white-space: pre;" direction="ltr">DCC or SCC</text></g><g stroke-linecap="round"><g transform="translate(1081.914504864382 381.05168839392184) rotate(0 50.040379124020205 0.5996446337592829)"><path d="M-1.09 1.06 C15.62 1.25, 84.26 0.38, 101.17 0.12" stroke="#495057" stroke-width="4.5" fill="none" stroke-dasharray="1.5 10"></path></g></g><g stroke-linecap="round"><g transform="translate(1187.8817842215014 380.75194935870275) rotate(0 0.8585005334507514 74.49938240938178)"><path d="M-0.6 0.24 C-0.33 25.19, 1.75 124.02, 2.32 148.76" stroke="#495057" stroke-width="4.5" fill="none" stroke-dasharray="1.5 10"></path></g></g><g stroke-linecap="round"><g transform="translate(1188.6640948177533 529.3214886214871) rotate(0 -409.33281368210976 4.0098665736637145)"><path d="M0.35 0.19 C-136.29 1.54, -682.47 6.53, -819.02 7.83" stroke="#495057" stroke-width="4.5" fill="none" stroke-dasharray="1.5 10"></path></g></g><g stroke-linecap="round"><g transform="translate(368.3752071121136 544.5389372680169) rotate(0 0.7129994606886498 20.501361527200572)"><path d="M-0.78 -0.44 C-0.51 6.5, 1.84 34.6, 2.2 41.45" stroke="#495057" stroke-width="4.5" fill="none" stroke-dasharray="1.5 10"></path></g></g><g stroke-linecap="round"><g transform="translate(371.13420327962433 587.9579648196227) rotate(0 51.90014051881212 0.6883163389393303)"><path d="M0 -0.88 C17.47 -0.54, 87.55 0.89, 105.26 1.25 M-1.46 1.27 C15.77 1.81, 86.17 2.12, 104.03 2.26" stroke="#000000" stroke-width="4" fill="none"></path></g><g transform="translate(371.13420327962433 587.9579648196227) rotate(0 51.90014051881212 0.6883163389393303)"><path d="M74.3 11.45 C83.67 9.72, 93.2 6.55, 104.58 2.25 M75.8 12.43 C85.21 8.92, 93.91 6.55, 103.39 1.76" stroke="#000000" stroke-width="4" fill="none"></path></g><g transform="translate(371.13420327962433 587.9579648196227) rotate(0 51.90014051881212 0.6883163389393303)"><path d="M74.43 -9.07 C83.61 -3.92, 93.1 -0.19, 104.58 2.25 M75.93 -8.09 C85.21 -5.19, 93.87 -1.15, 103.39 1.76" stroke="#000000" stroke-width="4" fill="none"></path></g></g><g transform="translate(486.1640625000002 578.5477764423074) rotate(0 187 12.5)"><text x="187" y="18" font-family="Virgil, Segoe UI Emoji" font-size="20px" fill="#000000" text-anchor="middle" style="white-space: pre;" direction="ltr">if DCC points found within WCC areas</text></g><g stroke-linecap="round"><g transform="translate(874.3125000000002 595.2344085812849) rotate(0 42.508779154288064 0.17032768492890682)"><path d="M0.96 0.81 C14.98 0.83, 70.85 -0.49, 85.01 -0.58 M0 0.19 C13.77 0.45, 69.73 1.16, 84 0.84" stroke="#000000" stroke-width="4" fill="none"></path></g><g transform="translate(874.3125000000002 595.2344085812849) rotate(0 42.508779154288064 0.17032768492890682)"><path d="M57.18 10.94 C66.07 8.39, 78.06 2.31, 85.24 -0.62 M54.98 10.38 C61.77 8.9, 67.27 6.22, 84.66 1.29" stroke="#000000" stroke-width="4" fill="none"></path></g><g transform="translate(874.3125000000002 595.2344085812849) rotate(0 42.508779154288064 0.17032768492890682)"><path d="M57.13 -9.58 C65.92 -4.44, 77.93 -2.83, 85.24 -0.62 M54.94 -10.14 C61.78 -7.48, 67.3 -6.01, 84.66 1.29" stroke="#000000" stroke-width="4" fill="none"></path></g></g><g transform="translate(978.4855769230771 567.7821514423076) rotate(0 50.5 22.5)"><text x="50.5" y="32" font-family="Virgil, Segoe UI Emoji" font-size="36px" fill="#c92a2a" text-anchor="middle" style="white-space: pre;" direction="ltr">DWCC</text></g><g stroke-linecap="round"><g transform="translate(148.59064113533555 608.323736077275) rotate(0 -0.6670031103297447 49.79638688151505)"><path d="M0.05 -1.15 C0.14 15.52, -0.43 83.91, -0.46 100.74 M-1.39 0.86 C-1.33 17.13, -1.36 82.3, -1.21 99" stroke="#000000" stroke-width="4" fill="none"></path></g></g><g stroke-linecap="round"><g transform="translate(150.5748692459822 709.6786021523671) rotate(0 61.793866432832544 -1.053063390303123)"><path d="M-1.15 0.38 C19.52 0.25, 103.91 -0.31, 124.74 -0.74 M0.45 -0.47 C20.96 -0.95, 103.75 -2.35, 124.17 -2.48" stroke="#000000" stroke-width="4" fill="none"></path></g><g transform="translate(150.5748692459822 709.6786021523671) rotate(0 61.793866432832544 -1.053063390303123)"><path d="M96.74 9.34 C107.39 4.26, 115.01 0.52, 124.98 -1.64 M96.24 9.1 C102.21 5.65, 109.23 2.32, 124.85 -2.05" stroke="#000000" stroke-width="4" fill="none"></path></g><g transform="translate(150.5748692459822 709.6786021523671) rotate(0 61.793866432832544 -1.053063390303123)"><path d="M96.48 -11.18 C107.23 -8.89, 114.94 -5.27, 124.98 -1.64 M95.98 -11.42 C102.18 -10.33, 109.26 -9.11, 124.85 -2.05" stroke="#000000" stroke-width="4" fill="none"></path></g></g><g transform="translate(283.8491586538462 691.3846153846154) rotate(0 84 12.5)"><text x="84" y="18" font-family="Virgil, Segoe UI Emoji" font-size="20px" fill="#000000" text-anchor="middle" style="white-space: pre;" direction="ltr">contiguous areas</text></g><g transform="translate(13.393028846153811 517.5955528846154) rotate(0 150.5 35)"><text x="150.5" y="25" font-family="Virgil, Segoe UI Emoji" font-size="28px" fill="#364fc7" text-anchor="middle" style="white-space: pre;" direction="ltr">masked as stratiform</text><text x="150.5" y="60" font-family="Virgil, Segoe UI Emoji" font-size="28px" fill="#364fc7" text-anchor="middle" style="white-space: pre;" direction="ltr">(&gt; 0dBZ)</text></g><g stroke-linecap="round"><g transform="translate(474.3877564964344 662.12384996013) rotate(322.7114127926438 66.21505136668729 35.15130955144423)"><path d="M-0.34 0.08 C21.33 11.87, 108.47 58.05, 130.4 69.9 M1.68 -0.92 C23.71 11.11, 111.29 59.53, 132.77 71.22" stroke="#000000" stroke-width="4" fill="none"></path></g><g transform="translate(474.3877564964344 662.12384996013) rotate(322.7114127926438 66.21505136668729 35.15130955144423)"><path d="M103.26 65.57 C112.27 68.57, 124.2 69, 133.76 72.89 M103.03 66.66 C110.44 68.03, 117.51 68.23, 132.87 70.67" stroke="#000000" stroke-width="4" fill="none"></path></g><g transform="translate(474.3877564964344 662.12384996013) rotate(322.7114127926438 66.21505136668729 35.15130955144423)"><path d="M113.14 47.58 C118.74 56.53, 127.4 62.92, 133.76 72.89 M112.91 48.67 C117.75 54.47, 122.43 59.04, 132.87 70.67" stroke="#000000" stroke-width="4" fill="none"></path></g></g><g stroke-linecap="round"><g transform="translate(467.8396344817805 705.9174677116241) rotate(0 72.2811021677452 21.22720209631848)"><path d="M0.08 -0.65 C24.54 6.59, 121.39 35.92, 145.9 43.1 M-1.34 1.63 C23 8.51, 120.05 34.1, 144.74 41.08" stroke="#000000" stroke-width="4" fill="none"></path></g><g transform="translate(467.8396344817805 705.9174677116241) rotate(0 72.2811021677452 21.22720209631848)"><path d="M113.76 42.92 C122.03 44.42, 127.8 43.4, 146.41 39.94 M114.86 43.73 C121.5 43.11, 126.82 42.66, 144.19 40.42" stroke="#000000" stroke-width="4" fill="none"></path></g><g transform="translate(467.8396344817805 705.9174677116241) rotate(0 72.2811021677452 21.22720209631848)"><path d="M119.15 23.12 C126.13 29.16, 130.66 32.69, 146.41 39.94 M120.25 23.93 C125.88 27.43, 130.08 31.11, 144.19 40.42" stroke="#000000" stroke-width="4" fill="none"></path></g></g><g transform="translate(630.7910691779869 665.9607872596154) rotate(0 130 12.5)"><text x="130" y="18" font-family="Virgil, Segoe UI Emoji" font-size="20px" fill="#000000" text-anchor="middle" style="white-space: pre;" direction="ltr">&gt;= 40,000 (50,000) km^2</text></g><g transform="translate(629.3340379279869 746.7810997596154) rotate(0 130 12.5)"><text x="130" y="18" font-family="Virgil, Segoe UI Emoji" font-size="20px" fill="#000000" text-anchor="middle" style="white-space: pre;" direction="ltr">&lt; 40,000 (50,000)  km^2</text></g><g stroke-linecap="round"><g transform="translate(900.3218149038462 677.4599718648309) rotate(0 37.659055925980184 -0.847934138295841)"><path d="M0.97 0.2 C13.67 -0.15, 62.93 -1.45, 75.3 -1.89 M0.02 -0.75 C12.73 -0.9, 62.39 -0.24, 74.87 -0.36" stroke="#000000" stroke-width="4" fill="none"></path></g><g transform="translate(900.3218149038462 677.4599718648309) rotate(0 37.659055925980184 -0.847934138295841)"><path d="M46.97 11.46 C52.94 8.8, 58.31 4.68, 76.31 -1.19 M46.99 10.18 C57.16 5.21, 67.05 2.29, 74.22 -0.2" stroke="#000000" stroke-width="4" fill="none"></path></g><g transform="translate(900.3218149038462 677.4599718648309) rotate(0 37.659055925980184 -0.847934138295841)"><path d="M47.04 -9.06 C53.02 -7.12, 58.38 -6.64, 76.31 -1.19 M47.05 -10.34 C57.05 -7.66, 66.92 -2.94, 74.22 -0.2" stroke="#000000" stroke-width="4" fill="none"></path></g></g><g transform="translate(995.0366586538462 651.5643028846154) rotate(0 36 22.5)"><text x="36" y="32" font-family="Virgil, Segoe UI Emoji" font-size="36px" fill="#364fc7" text-anchor="middle" style="white-space: pre;" direction="ltr">BSR</text></g><g stroke-linecap="round"><g transform="translate(899.4175180288462 758.9890956223306) rotate(0 38.225670576216615 -0.7403017749626315)"><path d="M0.56 0.25 C13.26 0.14, 64.2 0.23, 77.06 -0.17 M-0.6 -0.66 C11.9 -1.13, 63.37 -1.63, 76.39 -1.74" stroke="#000000" stroke-width="4" fill="none"></path></g><g transform="translate(899.4175180288462 758.9890956223306) rotate(0 38.225670576216615 -0.7403017749626315)"><path d="M48.73 9.7 C60.51 6.72, 67.71 0, 74.82 -1.69 M48.14 7.83 C54.09 6.53, 61.07 3.8, 77.01 -0.92" stroke="#000000" stroke-width="4" fill="none"></path></g><g transform="translate(899.4175180288462 758.9890956223306) rotate(0 38.225670576216615 -0.7403017749626315)"><path d="M48.53 -10.82 C60.48 -6.14, 67.75 -5.21, 74.82 -1.69 M47.95 -12.69 C54.01 -9.21, 61.03 -7.16, 77.01 -0.92" stroke="#000000" stroke-width="4" fill="none"></path></g></g><g transform="translate(989.7319711538462 742.0525841346154) rotate(0 44 17.5)"><text x="44" y="25" font-family="Virgil, Segoe UI Emoji" font-size="28px" fill="#000000" text-anchor="middle" style="white-space: pre;" direction="ltr">others</text></g><g stroke-linecap="round"><g transform="translate(150.15053311768554 400.90160174364223) rotate(0 -0.2563863999629348 48.20803469974794)"><path d="M-1.07 -1.16 C-0.98 15.11, -0.1 79.85, 0.14 96.43 M0.56 0.84 C0.59 17.35, -0.36 81.62, -0.45 97.58" stroke="#000000" stroke-width="4" fill="none"></path></g></g><g stroke-linecap="round"><g transform="translate(974.617797453458 213.42277644230762) rotate(0 37.922780685797335 0.7023794202506224)"><path d="M-1.99 0.93 C10.84 1.04, 65.37 -0.33, 77.84 -1.06 M2.12 -1.04 C14.74 -0.3, 64.28 2.58, 76.97 2.47" stroke="#c92a2a" stroke-width="2" fill="none"></path></g></g><g stroke-linecap="round"><g transform="translate(979.460807183216 310.1080835810934) rotate(0 37.517717112973344 -0.6108783113211587)"><path d="M0.6 1.75 C12.85 1.5, 60.02 1.25, 72.62 1.01 M-2.52 0.23 C10.63 0.41, 64.65 -2.18, 77.56 -2.97" stroke="#c92a2a" stroke-width="2" fill="none"></path></g></g><g stroke-linecap="round"><g transform="translate(985.7108071832158 402.6080835810933) rotate(0 37.13817011483013 -0.33965509183707354)"><path d="M-1.89 1.97 C11.02 1.86, 63.67 2.13, 76.17 1.22 M2.28 0.57 C15.01 -0.48, 61.66 -2.26, 74.39 -2.65" stroke="#c92a2a" stroke-width="2" fill="none"></path></g></g><g stroke-linecap="round"><g transform="translate(976.9608071832158 617.6080835810933) rotate(0 52.208677926585096 -3.5265267281746446)"><path d="M-0.89 -0.28 C16.84 -1.59, 87.25 -6.02, 105.3 -6.78 M3.83 -2.89 C21.16 -4, 85.34 -4.39, 102.39 -4.19" stroke="#c92a2a" stroke-width="2" fill="none"></path></g></g><g stroke-linecap="round"><g transform="translate(995.08888905404 699.6041490526895) rotate(0 35.93002794861795 -2.6646131801372803)"><path d="M-1.45 0.23 C10.5 -0.54, 61.16 -4.98, 73.31 -5.56 M2.96 -2.12 C14.42 -2.46, 58.8 -3.2, 71.21 -2.8" stroke="#364fc7" stroke-width="2" fill="none"></path></g></g></svg>