<svg version="1.1" xmlns="http://www.w3.org/2000/svg" viewBox="0 0 1191 800.0955528846154" width="3573" height="2400.286658653846">
  <!-- svg-source:excalidraw -->
  
  <defs>
    <style>
      @font-face {
        font-family: "Virgil";
        src: url("https://excalidraw.com/Virgil.woff2");
      }
      @font-face {
        font-family: "Cascadia";
        src: url("https://excalidraw.com/Cascadia.woff2");
      }
    </style>
  </defs>
  <g stroke-linecap="round" transform="translate(23.348858173076906 182.42788461538464) rotate(0 139.5662560096154 108.69140624999994)"><path d="M-0.4 1.45 C67.84 -0.4, 138.8 0.02, 280.38 -1.01 M-0.26 0.68 C72.94 -0.47, 146.63 -0.36, 278.63 -0.66 M279.62 1.03 C277.6 66.61, 278.91 131.37, 277.64 218.98 M278.91 0.81 C277.64 74.9, 277.26 147.68, 279.37 217.25 M280.64 218.89 C195.71 215.67, 111.07 215.35, -0.56 217.85 M279.26 216.95 C204.47 218.29, 129.64 218.6, -0.29 217.4 M0.43 218.52 C2.99 136.98, 0.86 53.88, -1.16 -0.58 M-0.76 217.6 C1.41 169.96, 0.79 122.71, 0.15 -0.47" stroke="#000000" stroke-width="1" fill="none"></path></g><g stroke-linecap="round" transform="translate(130.3610116230326 293.6281856659109) rotate(343.45389414218005 73.47341666709966 41.2854008477691)"><path d="M9.9 20.53 C9.9 20.53, 9.9 20.53, 9.9 20.53 M9.9 20.53 C9.9 20.53, 9.9 20.53, 9.9 20.53 M2.13 34.04 C9.3 26.97, 14.85 18.35, 19.33 13.79 M3.02 33.91 C8.07 29.52, 10.56 25.59, 20.45 14.71 M-0.29 43.23 C8.97 37.15, 14.89 30.98, 27.51 10.74 M1.34 42.35 C11.97 30.56, 22.06 18.59, 29.21 10.54 M4.86 45.26 C14.09 32.7, 28.63 19.68, 38.23 7.18 M3.11 45.12 C12.41 34.52, 21.96 24.07, 37.57 7.5 M7.2 49.91 C17.57 37.24, 29.21 23.24, 47.04 2.73 M5.57 49.1 C21.3 31.7, 36.43 12.62, 46.69 2.16 M8.76 55.88 C17.51 44.66, 26.17 30.43, 50.69 2.33 M6.55 53.82 C21 39.38, 34.55 23.71, 52.78 1.91 M9.14 57.6 C24.9 40.81, 43 20.4, 56.46 2.91 M8.56 58.9 C25.86 39.09, 43.37 19.78, 58.47 3.24 M11.84 61.84 C22.87 48.71, 34.43 36.45, 64.85 0.3 M11.13 62.05 C26.25 45.05, 41.11 28.48, 62.36 1.14 M13.92 64.71 C29.94 48.24, 44.23 27.74, 69.78 3.03 M13.39 64.73 C27.03 49.97, 40.24 35.04, 69.31 2.42 M17.14 68.56 C34.95 45.79, 52.57 25.5, 73.63 0.39 M17.22 66.5 C40.15 40.95, 62.43 17.34, 74.37 0.33 M20.15 67.45 C34.42 53.75, 46.07 40.58, 80.29 0.47 M20.37 69.08 C34.6 53.68, 47.16 39.16, 79.82 2.12 M26.29 71.28 C43.59 52.58, 58.73 32.78, 84.8 3.24 M24.29 69.95 C43.99 47.86, 65.67 24.61, 83.79 2.65 M29.89 74.06 C48.74 46.72, 72.04 22.37, 88.43 4.86 M29.34 73.19 C45.78 52.09, 64.45 32.28, 89.28 2.24 M32.67 76.76 C50.55 54.61, 67.88 30.5, 92.94 5.98 M31.17 75.85 C45.78 58.91, 59.76 43.26, 93.45 3.49 M34.02 75.58 C58.91 51.55, 79.07 27.08, 97.05 2.59 M35.98 76.76 C53.61 53.66, 73.61 33, 97.95 3.65 M42.08 78.28 C63.99 51.16, 89.72 21.55, 102.05 7.54 M39.6 76.38 C62.05 52.22, 84.09 25.15, 101.64 4.72 M43.47 77.79 C62.42 58.39, 79.76 34.11, 105.51 7.37 M44.1 78.95 C62.19 57.77, 78.91 37.94, 106.14 5.73 M50.86 78.67 C64.83 59.34, 84.2 39.51, 110.3 8.63 M49.43 78.49 C69.61 55.08, 92.05 31.87, 111.89 7.69 M52.75 79.28 C73.94 54.07, 96.21 30.81, 114.96 10.42 M54.11 79.47 C72.01 57.49, 91.48 35.82, 114.48 9.58 M59.79 79.78 C71.13 68.04, 86.09 51.75, 120.68 12.49 M57.51 80.34 C71.12 65.15, 83.12 51.12, 118.58 11.01 M62.45 79.69 C80.53 59.93, 95.74 41.17, 123.04 14.25 M62.55 81.7 C80.05 64.15, 95.1 45.81, 123.65 12.79 M66.77 81.49 C85.73 62.21, 107.36 37.93, 124.97 17.15 M67.34 83.34 C89.86 58.22, 111.27 34.12, 125.91 15.76 M70.64 84.64 C93 59.47, 115.43 33.59, 129.82 18.15 M72.49 82.81 C88.26 63.49, 105.25 44.16, 129.32 17.92 M77.51 83.45 C91.42 64.01, 109.01 50.68, 132.38 18.4 M78.78 82.84 C98.51 57.48, 118.88 33.43, 131.61 19.5 M84.81 81.57 C104.05 59.37, 121.12 41.32, 137.86 22.43 M84.48 82.39 C99.99 63.04, 115.94 43.92, 135.18 21.78 M90.87 79.86 C109.72 57.61, 127.6 37.23, 140.95 22.82 M88.37 81.99 C108.79 58.87, 129.33 37.54, 139.22 24.26 M94.01 80.43 C108.58 65.61, 122.79 47.21, 141.52 27.2 M95.66 80.33 C110.39 63.64, 124.23 47.39, 143.27 25.16 M102.18 79.96 C112.46 68.09, 125.08 52.9, 143.59 30.31 M99.7 81.13 C112.81 64.52, 126.54 50.66, 143.25 30.11 M105.34 80.22 C116.34 66.78, 129.64 53.66, 145.68 34.1 M107.28 80.21 C116.48 68.31, 125.83 56.62, 145.7 35.61 M114.47 75.96 C128.29 62.39, 138.45 47.06, 148.58 40 M115.6 74.82 C122.32 67.68, 129.2 59.91, 146.59 40.04 M125.99 70.41 C131.88 62.24, 140.73 51.05, 145.63 45.04 M127.69 69.81 C133.76 59.97, 141.23 51.99, 145.53 47.13" stroke="#fa5252" stroke-width="0.5" fill="none"></path><path d="M45.97 2.06 C56.16 -0.76, 71.39 -0.53, 83.13 0.49 C94.88 1.52, 106.68 4.19, 116.42 8.2 C126.16 12.2, 136.52 18.21, 141.56 24.51 C146.59 30.81, 147.95 39.43, 146.61 46 C145.28 52.57, 140.38 58.42, 133.55 63.95 C126.72 69.48, 116.11 76.22, 105.63 79.2 C95.15 82.19, 82.57 82.46, 70.66 81.88 C58.74 81.3, 44.42 79.22, 34.15 75.72 C23.89 72.22, 14.68 66.68, 9.07 60.87 C3.46 55.07, 0.33 47.67, 0.5 40.91 C0.67 34.15, 4.09 26.02, 10.07 20.32 C16.06 14.62, 29.93 9.7, 36.4 6.7 C42.87 3.7, 46.56 3.01, 48.9 2.32 C51.23 1.63, 50.1 2.04, 50.39 2.56 M76.56 -1.37 C88.21 -2.13, 102.52 1.24, 112.83 4.77 C123.14 8.29, 132.69 13.88, 138.4 19.79 C144.1 25.7, 147 33.05, 147.07 40.23 C147.13 47.41, 144.89 56.72, 138.8 62.88 C132.7 69.05, 120.78 73.83, 110.51 77.22 C100.25 80.6, 89.05 83.18, 77.19 83.18 C65.34 83.19, 50.32 80.56, 39.41 77.26 C28.49 73.96, 18.03 68.98, 11.7 63.38 C5.38 57.79, 2.11 50.06, 1.47 43.69 C0.82 37.33, 3.23 31.39, 7.84 25.2 C12.44 19, 19.77 10.87, 29.1 6.53 C38.44 2.19, 55.75 0.37, 63.86 -0.83 C71.96 -2.03, 75.62 -1.09, 77.74 -0.67 C79.87 -0.25, 76.78 1.05, 76.62 1.7" stroke="#c92a2a" stroke-width="1" fill="none"></path></g><g transform="translate(10 10) rotate(0 585.5 22.5)"><text x="0" y="32" font-family="Virgil, Segoe UI Emoji" font-size="36px" fill="#000000" text-anchor="start" style="white-space: pre;" direction="ltr">Storm Mode Classification based on 3D Radar Reflectivity (dBZ)</text></g><g transform="translate(19.23317307692298 118.82632211538464) rotate(0 224.5 17.5)"><text x="0" y="25" font-family="Virgil, Segoe UI Emoji" font-size="28px" fill="#000000" text-anchor="start" style="white-space: pre;" direction="ltr">Start from max. composite dBZ:</text></g><g transform="translate(39.674579326923094 200.39242788461536) rotate(0 106 25)"><text x="106" y="18" font-family="Virgil, Segoe UI Emoji" font-size="20px" fill="#c92a2a" text-anchor="middle" style="white-space: pre;" direction="ltr">&gt;= 30 (40) dBZ &amp;</text><text x="106" y="43" font-family="Virgil, Segoe UI Emoji" font-size="20px" fill="#c92a2a" text-anchor="middle" style="white-space: pre;" direction="ltr">masked as convective</text></g><g stroke-linecap="round"><g transform="translate(134.17983772708976 255.87516903889673) rotate(0 18.527899971720387 17.99633308572001)"><path d="M-0.77 0.97 C5.45 6.57, 31.68 28.52, 37.82 34.32 M1.03 0.43 C7.11 6.13, 31.03 29.99, 37.27 35.57" stroke="#c92a2a" stroke-width="1" fill="none"></path></g><g transform="translate(134.17983772708976 255.87516903889673) rotate(0 18.527899971720387 17.99633308572001)"><path d="M15.55 26.64 C21.02 27.41, 31.41 34.15, 35.39 34.59 M14.89 25.33 C20.46 27.76, 27.77 31.85, 36.98 35.35" stroke="#c92a2a" stroke-width="1" fill="none"></path></g><g transform="translate(134.17983772708976 255.87516903889673) rotate(0 18.527899971720387 17.99633308572001)"><path d="M27.55 14.03 C29 19.03, 35.29 30.07, 35.39 34.59 M26.89 12.71 C29.14 18.62, 33.12 26.2, 36.98 35.35" stroke="#c92a2a" stroke-width="1" fill="none"></path></g></g><g stroke-linecap="round"><g transform="translate(318.6644695707592 276.5087684023258) rotate(0 46.33910230893065 -1.5485790971260087)"><path d="M-0.23 0.1 C15.71 -0.54, 78.88 -2.55, 94.49 -3.2 M-1.81 -0.89 C14.1 -1.38, 77.43 -1.36, 93.72 -1.68" stroke="#000000" stroke-width="4" fill="none"></path></g><g transform="translate(318.6644695707592 276.5087684023258) rotate(0 46.33910230893065 -1.5485790971260087)"><path d="M65.79 9.39 C71.23 5.54, 75.96 4.93, 93.15 -1.52 M65.42 9.17 C75.34 5.82, 86.07 1.34, 92.74 -2.33" stroke="#000000" stroke-width="4" fill="none"></path></g><g transform="translate(318.6644695707592 276.5087684023258) rotate(0 46.33910230893065 -1.5485790971260087)"><path d="M65.61 -11.13 C71.2 -10.8, 75.96 -7.23, 93.15 -1.52 M65.24 -11.35 C75.36 -7.13, 86.15 -4.05, 92.74 -2.33" stroke="#000000" stroke-width="4" fill="none"></path></g></g><g transform="translate(424.3464543269231 255.97836538461536) rotate(0 102 12.5)"><text x="102" y="18" font-family="Virgil, Segoe UI Emoji" font-size="20px" fill="#000000" text-anchor="middle" style="white-space: pre;" direction="ltr">find 8 (10) km Height</text></g><g stroke-linecap="round"><g transform="translate(627.840204483242 240.76999991667918) rotate(322.7114127926438 55.60248253551998 3.6159877733884684)"><path d="M-0.44 -0.65 C17.66 0.64, 90.84 6.68, 109.38 7.88 M1.53 1.62 C19.94 2.53, 93.51 5.03, 111.64 6" stroke="#000000" stroke-width="4" fill="none"></path></g><g transform="translate(627.840204483242 240.76999991667918) rotate(322.7114127926438 55.60248253551998 3.6159877733884684)"><path d="M81.96 13.63 C94.17 12.8, 102.36 10.03, 112.12 5.62 M83.15 14.5 C89.86 12.51, 94.47 10.56, 111.33 5.11" stroke="#000000" stroke-width="4" fill="none"></path></g><g transform="translate(627.840204483242 240.76999991667918) rotate(322.7114127926438 55.60248253551998 3.6159877733884684)"><path d="M82.83 -6.87 C94.75 -0.26, 102.62 4.42, 112.12 5.62 M84.01 -6 C90.57 -3.71, 95 -1.39, 111.33 5.11" stroke="#000000" stroke-width="4" fill="none"></path></g></g><g transform="translate(739.3972355769231 197.58774038461536) rotate(0 81.5 12.5)"><text x="81.5" y="18" font-family="Virgil, Segoe UI Emoji" font-size="20px" fill="#000000" text-anchor="middle" style="white-space: pre;" direction="ltr">&gt;= 30 (40) dBZ</text></g><g stroke-linecap="round"><g transform="translate(916.0144230769231 206.46058334984667) rotate(0 20.411968799084406 0.9041169154248223)"><path d="M0.55 1.01 C7.08 1.45, 32.86 1.81, 39.31 1.75 M-0.62 0.49 C6.26 0.68, 34.42 -0.14, 41.44 0.09" stroke="#000000" stroke-width="4" fill="none"></path></g><g transform="translate(916.0144230769231 206.46058334984667) rotate(0 20.411968799084406 0.9041169154248223)"><path d="M24.14 5.2 C29.88 2.85, 33.98 2.03, 39.65 0.64 M23.18 7.08 C26.53 6.21, 32.91 3.19, 41.77 -0.54" stroke="#000000" stroke-width="4" fill="none"></path></g><g transform="translate(916.0144230769231 206.46058334984667) rotate(0 20.411968799084406 0.9041169154248223)"><path d="M24.12 -8.63 C29.76 -6.68, 33.87 -3.2, 39.65 0.64 M23.16 -6.74 C26.54 -4.04, 32.93 -3.48, 41.77 -0.54" stroke="#000000" stroke-width="4" fill="none"></path></g></g><g transform="translate(965.2136418269231 181.86508413461536) rotate(0 37 22.5)"><text x="37" y="32" font-family="Virgil, Segoe UI Emoji" font-size="36px" fill="#c92a2a" text-anchor="middle" style="white-space: pre;" direction="ltr">DCC</text></g><g stroke-linecap="round"><g transform="translate(642.0321360351376 266.0259269625602) rotate(0 45.47612265294343 21.815215035500927)"><path d="M-0.98 -0.78 C14.07 6.47, 74.66 37.05, 89.77 44.41 M0.7 1.43 C16.16 8.25, 76.73 35.41, 91.94 42.59" stroke="#000000" stroke-width="4" fill="none"></path></g><g transform="translate(642.0321360351376 266.0259269625602) rotate(0 45.47612265294343 21.815215035500927)"><path d="M60.74 38.45 C70.6 39.13, 76.49 42.96, 93.11 44.23 M61.08 39.88 C73.21 40.32, 84.21 41.82, 92.59 43.23" stroke="#000000" stroke-width="4" fill="none"></path></g><g transform="translate(642.0321360351376 266.0259269625602) rotate(0 45.47612265294343 21.815215035500927)"><path d="M69.29 19.79 C77.12 25.14, 80.84 33.7, 93.11 44.23 M69.63 21.22 C78.4 28.81, 86.13 37.45, 92.59 43.23" stroke="#000000" stroke-width="4" fill="none"></path></g></g><g transform="translate(746.5808293269231 294.43149038461536) rotate(0 76.5 12.5)"><text x="76.5" y="18" font-family="Virgil, Segoe UI Emoji" font-size="20px" fill="#000000" text-anchor="middle" style="white-space: pre;" direction="ltr">&lt; 30 (40) dBZ</text></g><g stroke-linecap="round"><g transform="translate(915.4239212819591 304.51976801379953) rotate(0 24.090301095321735 -0.2632462096460131)"><path d="M-0.67 -0.74 C7.57 -0.96, 40.75 -1.83, 48.85 -2.01 M1.19 1.48 C9.39 1.42, 40.7 -0.68, 48.36 -1.1" stroke="#000000" stroke-width="4" fill="none"></path></g><g transform="translate(915.4239212819591 304.51976801379953) rotate(0 24.090301095321735 -0.2632462096460131)"><path d="M25.13 9.94 C30.03 6.11, 35.95 4.49, 48.23 -0.43 M26.18 8.02 C32.09 6.73, 38.86 3.98, 49.23 -0.21" stroke="#000000" stroke-width="4" fill="none"></path></g><g transform="translate(915.4239212819591 304.51976801379953) rotate(0 24.090301095321735 -0.2632462096460131)"><path d="M24.13 -6.44 C29.2 -6.09, 35.37 -3.54, 48.23 -0.43 M25.19 -8.35 C31.48 -5.35, 38.51 -3.79, 49.23 -0.21" stroke="#000000" stroke-width="4" fill="none"></path></g></g><g transform="translate(971.7605168269231 277.64242788461536) rotate(0 34 22.5)"><text x="34" y="32" font-family="Virgil, Segoe UI Emoji" font-size="36px" fill="#c92a2a" text-anchor="middle" style="white-space: pre;" direction="ltr">SCC</text></g><g stroke-linecap="round"><g transform="translate(355.47539214646474 279.1110200829962) rotate(359.41360886175926 0.6144453533459284 92.31666863346629)"><path d="M-0.38 -0.58 C-0.22 29.89, 0.65 152.82, 1.08 183.59 M1.61 1.73 C1.61 32.35, 0.05 155.17, 0.12 185.22" stroke="#000000" stroke-width="4" fill="none"></path></g></g><g stroke-linecap="round"><g transform="translate(355.80192265615153 465.1890504226368) rotate(0 37.92590491817333 -2.336744163626861)"><path d="M0.52 -0.03 C13.26 -0.54, 63.93 -2.39, 76.51 -3.09 M-0.66 -1.1 C11.92 -1.91, 63.05 -4.34, 75.68 -4.64" stroke="#000000" stroke-width="4" fill="none"></path></g><g transform="translate(355.80192265615153 465.1890504226368) rotate(0 37.92590491817333 -2.336744163626861)"><path d="M47.84 7.05 C58.33 2.59, 65.08 0.96, 74.96 -3.33 M47.8 6.74 C54.34 4.78, 59.24 1.54, 75.08 -5.08" stroke="#000000" stroke-width="4" fill="none"></path></g><g transform="translate(355.80192265615153 465.1890504226368) rotate(0 37.92590491817333 -2.336744163626861)"><path d="M47.06 -13.45 C57.79 -11.56, 64.77 -6.82, 74.96 -3.33 M47.02 -13.77 C53.61 -11.32, 58.67 -10.15, 75.08 -5.08" stroke="#000000" stroke-width="4" fill="none"></path></g></g><g transform="translate(443.6706730769231 441.10336538461536) rotate(0 84 12.5)"><text x="84" y="18" font-family="Virgil, Segoe UI Emoji" font-size="20px" fill="#000000" text-anchor="middle" style="white-space: pre;" direction="ltr">contiguous areas</text></g><g stroke-linecap="round"><g transform="translate(621.2126755369793 422.8200081494033) rotate(322.7114127926438 41.6918739755745 10.888098180312795)"><path d="M0.61 0.27 C14.56 3.91, 70.14 17.46, 83.91 20.91 M-0.53 -0.64 C13.32 3.28, 69.58 18.59, 83.44 22.42" stroke="#000000" stroke-width="4" fill="none"></path></g><g transform="translate(621.2126755369793 422.8200081494033) rotate(322.7114127926438 41.6918739755745 10.888098180312795)"><path d="M53.98 26.36 C63.02 24.31, 72.69 23.64, 81.81 21.48 M52.87 24.26 C65.68 23.48, 77.64 22.29, 84.09 23.03" stroke="#000000" stroke-width="4" fill="none"></path></g><g transform="translate(621.2126755369793 422.8200081494033) rotate(322.7114127926438 41.6918739755745 10.888098180312795)"><path d="M59.4 6.57 C66.55 10.87, 74.49 16.53, 81.81 21.48 M58.29 4.47 C68.93 11.54, 78.73 18.19, 84.09 23.03" stroke="#000000" stroke-width="4" fill="none"></path></g></g><g stroke-linecap="round"><g transform="translate(625.5906604966755 453.7418622535157) rotate(0 37.95784027327707 14.630235958267974)"><path d="M0.27 0.9 C13.25 5.62, 64.17 24.25, 76.97 28.93 M-1.05 0.33 C11.85 4.61, 63.1 21.9, 75.99 26.93" stroke="#000000" stroke-width="4" fill="none"></path></g><g transform="translate(625.5906604966755 453.7418622535157) rotate(0 37.95784027327707 14.630235958267974)"><path d="M47.49 26.95 C53.02 26.96, 59.8 25.3, 75.05 28.86 M45.39 27.33 C54.17 27.6, 62.56 27.83, 76.6 27.39" stroke="#000000" stroke-width="4" fill="none"></path></g><g transform="translate(625.5906604966755 453.7418622535157) rotate(0 37.95784027327707 14.630235958267974)"><path d="M54.44 7.64 C58.53 11.95, 63.76 14.57, 75.05 28.86 M52.33 8.02 C59.12 13.78, 65.52 19.56, 76.6 27.39" stroke="#000000" stroke-width="4" fill="none"></path></g></g><g transform="translate(711.4558293269231 388.37680288461536) rotate(0 102 12.5)"><text x="102" y="18" font-family="Virgil, Segoe UI Emoji" font-size="20px" fill="#000000" text-anchor="middle" style="white-space: pre;" direction="ltr">&gt;= 800 (1000) km^2</text></g><g transform="translate(709.7761418269231 472.36508413461536) rotate(0 97 12.5)"><text x="97" y="18" font-family="Virgil, Segoe UI Emoji" font-size="20px" fill="#000000" text-anchor="middle" style="white-space: pre;" direction="ltr">&lt; 800 (1000) km^2</text></g><g stroke-linecap="round"><g transform="translate(927.7803770994051 394.5519599749524) rotate(0 19.66012751944362 0.06538450020127584)"><path d="M-0.96 0.29 C5.9 0.38, 33.15 0.79, 40.28 0.83 M0.74 -0.6 C7.48 -0.84, 32.31 -0.55, 39.14 -0.69" stroke="#000000" stroke-width="4" fill="none"></path></g><g transform="translate(927.7803770994051 394.5519599749524) rotate(0 19.66012751944362 0.06538450020127584)"><path d="M20.56 5.72 C26.37 6.85, 30.2 1.37, 37.78 -2.48 M20 6.1 C27.13 3.58, 33.8 2, 39.88 -1.12" stroke="#000000" stroke-width="4" fill="none"></path></g><g transform="translate(927.7803770994051 394.5519599749524) rotate(0 19.66012751944362 0.06538450020127584)"><path d="M20.51 -8.17 C26.37 -3.85, 30.21 -6.13, 37.78 -2.48 M19.96 -7.8 C27.11 -5.56, 33.79 -2.37, 39.88 -1.12" stroke="#000000" stroke-width="4" fill="none"></path></g></g><g transform="translate(977.3116270994051 367.38656850961536) rotate(0 36.5 22.5)"><text x="36.5" y="32" font-family="Virgil, Segoe UI Emoji" font-size="36px" fill="#c92a2a" text-anchor="middle" style="white-space: pre;" direction="ltr">WCC</text></g><g stroke-linecap="round"><g transform="translate(916.8930003044411 483.78408300162744) rotate(0 25.39885314591224 0.17134582690965772)"><path d="M-0.36 1.16 C8.32 1.25, 42.96 1.17, 51.16 0.84 M1.65 0.72 C10.37 0.45, 42.59 -0.74, 50.84 -0.85" stroke="#000000" stroke-width="4" fill="none"></path></g><g transform="translate(916.8930003044411 483.78408300162744) rotate(0 25.39885314591224 0.17134582690965772)"><path d="M29.52 10.3 C34.06 4.49, 36.45 2.55, 51.69 -0.78 M28.13 8.02 C35.83 5.91, 43.48 1.97, 51.06 0.12" stroke="#000000" stroke-width="4" fill="none"></path></g><g transform="translate(916.8930003044411 483.78408300162744) rotate(0 25.39885314591224 0.17134582690965772)"><path d="M29.07 -6.78 C33.75 -8.83, 36.24 -7, 51.69 -0.78 M27.68 -9.07 C35.52 -5.61, 43.31 -3.99, 51.06 0.12" stroke="#000000" stroke-width="4" fill="none"></path></g></g><g transform="translate(975.1475645994051 464.17953725961536) rotate(0 83.5 17.5)"><text x="83.5" y="25" font-family="Virgil, Segoe UI Emoji" font-size="28px" fill="#000000" text-anchor="middle" style="white-space: pre;" direction="ltr">DCC or SCC</text></g><g stroke-linecap="round"><g transform="translate(1069.013363037459 393.55168839392184) rotate(0 50.040379124020205 0.5996446337592829)"><path d="M-1.09 1.06 C15.62 1.25, 84.26 0.38, 101.17 0.12" stroke="#495057" stroke-width="4.5" fill="none" stroke-dasharray="1.5 10"></path></g></g><g stroke-linecap="round"><g transform="translate(1174.9806423945784 393.25194935870275) rotate(0 0.8585005334507514 74.49938240938178)"><path d="M-0.6 0.24 C-0.33 25.19, 1.75 124.02, 2.32 148.76" stroke="#495057" stroke-width="4.5" fill="none" stroke-dasharray="1.5 10"></path></g></g><g stroke-linecap="round"><g transform="translate(1175.7629529908302 541.8214886214871) rotate(0 -409.33281368210976 4.0098665736637145)"><path d="M0.35 0.19 C-136.29 1.54, -682.47 6.53, -819.02 7.83" stroke="#495057" stroke-width="4.5" fill="none" stroke-dasharray="1.5 10"></path></g></g><g stroke-linecap="round"><g transform="translate(355.47406528519053 557.0389372680169) rotate(0 0.7129994606886498 20.501361527200572)"><path d="M-0.78 -0.44 C-0.51 6.5, 1.84 34.6, 2.2 41.45" stroke="#495057" stroke-width="4.5" fill="none" stroke-dasharray="1.5 10"></path></g></g><g stroke-linecap="round"><g transform="translate(358.23306145270124 600.4579648196227) rotate(0 43.90014051881212 1.1629677106417375)"><path d="M0 -0.88 C14.8 -0.38, 74.22 1.68, 89.26 2.2 M-1.46 1.27 C13.1 1.96, 72.83 2.92, 88.03 3.21" stroke="#000000" stroke-width="4" fill="none"></path></g><g transform="translate(358.23306145270124 600.4579648196227) rotate(0 43.90014051881212 1.1629677106417375)"><path d="M58.19 12.07 C67.59 10.45, 77.16 7.39, 88.58 3.2 M59.69 13.05 C69.12 9.64, 77.86 7.38, 87.39 2.71" stroke="#000000" stroke-width="4" fill="none"></path></g><g transform="translate(358.23306145270124 600.4579648196227) rotate(0 43.90014051881212 1.1629677106417375)"><path d="M58.55 -8.45 C67.69 -3.18, 77.14 0.65, 88.58 3.2 M60.06 -7.47 C69.29 -4.46, 77.92 -0.32, 87.39 2.71" stroke="#000000" stroke-width="4" fill="none"></path></g></g><g transform="translate(457.26292067307713 594.7977764423074) rotate(0 205.5 12.5)"><text x="205.5" y="18" font-family="Virgil, Segoe UI Emoji" font-size="20px" fill="#000000" text-anchor="middle" style="white-space: pre;" direction="ltr">if DCC points embedded within WCC areas</text></g><g stroke-linecap="round"><g transform="translate(882.4113581730771 608.8270609812921) rotate(0 37.07505733420926 -0.31784577604753395)"><path d="M0.96 0.81 C13.17 0.69, 61.79 -1.21, 74.15 -1.44 M0 0.19 C11.96 0.31, 60.68 0.44, 73.13 -0.03" stroke="#000000" stroke-width="4" fill="none"></path></g><g transform="translate(882.4113581730771 608.8270609812921) rotate(0 37.07505733420926 -0.31784577604753395)"><path d="M46.44 10.42 C55.28 7.74, 67.23 1.53, 74.37 -1.48 M44.24 9.86 C51 8.31, 56.48 5.56, 73.8 0.42" stroke="#000000" stroke-width="4" fill="none"></path></g><g transform="translate(882.4113581730771 608.8270609812921) rotate(0 37.07505733420926 -0.31784577604753395)"><path d="M46.14 -10.1 C54.98 -5.09, 67.03 -3.61, 74.37 -1.48 M43.95 -10.66 C50.82 -8.07, 56.36 -6.67, 73.8 0.42" stroke="#000000" stroke-width="4" fill="none"></path></g></g><g transform="translate(965.584435096154 580.2821514423076) rotate(0 50.5 22.5)"><text x="50.5" y="32" font-family="Virgil, Segoe UI Emoji" font-size="36px" fill="#c92a2a" text-anchor="middle" style="white-space: pre;" direction="ltr">DWCC</text></g><g stroke-linecap="round"><g transform="translate(132.9989538983657 408.0228394002728) rotate(0 -0.660905657208275 153.07183522001617)"><path d="M0.05 -1.15 C0.17 49.95, -0.28 256.04, -0.27 307.29 M-1.39 0.86 C-1.3 51.55, -1.2 254.43, -1.02 305.55" stroke="#000000" stroke-width="4" fill="none"></path></g></g><g stroke-linecap="round"><g transform="translate(131.32342852672502 721.5955480936207) rotate(0 91.49944376068362 -0.7866602655365114)"><path d="M-1.15 0.38 C29.42 0.34, 153.42 0.13, 184.15 -0.21 M0.45 -0.47 C30.86 -0.86, 153.26 -1.9, 183.58 -1.95" stroke="#000000" stroke-width="4" fill="none"></path></g><g transform="translate(131.32342852672502 721.5955480936207) rotate(0 91.49944376068362 -0.7866602655365114)"><path d="M156.08 9.67 C166.75 4.67, 174.4 0.99, 184.39 -1.11 M155.58 9.44 C161.57 6.03, 168.6 2.74, 184.26 -1.52" stroke="#000000" stroke-width="4" fill="none"></path></g><g transform="translate(131.32342852672502 721.5955480936207) rotate(0 91.49944376068362 -0.7866602655365114)"><path d="M155.96 -10.85 C166.69 -8.49, 174.37 -4.8, 184.39 -1.11 M155.46 -11.08 C161.65 -9.95, 168.71 -8.69, 184.26 -1.52" stroke="#000000" stroke-width="4" fill="none"></path></g></g><g transform="translate(327.1980168269231 705.1346153846154) rotate(0 84 12.5)"><text x="84" y="18" font-family="Virgil, Segoe UI Emoji" font-size="20px" fill="#000000" text-anchor="middle" style="white-space: pre;" direction="ltr">contiguous areas</text></g><g transform="translate(41.74188701923072 740.0955528846154) rotate(0 107.5 25)"><text x="107.5" y="18" font-family="Virgil, Segoe UI Emoji" font-size="20px" fill="#364fc7" text-anchor="middle" style="white-space: pre;" direction="ltr">masked as stratiform</text><text x="107.5" y="43" font-family="Virgil, Segoe UI Emoji" font-size="20px" fill="#364fc7" text-anchor="middle" style="white-space: pre;" direction="ltr">(&gt; 0dBZ)</text></g><g stroke-linecap="round"><g transform="translate(508.9250923647752 692.0332855766845) rotate(322.7114127926438 49.04486888679115 21.054780068393825)"><path d="M-0.34 0.08 C15.6 7.17, 79.85 34.56, 96.06 41.7 M1.68 -0.92 C17.99 6.41, 82.67 36.03, 98.43 43.03" stroke="#000000" stroke-width="4" fill="none"></path></g><g transform="translate(508.9250923647752 692.0332855766845) rotate(322.7114127926438 49.04486888679115 21.054780068393825)"><path d="M68.65 39.69 C77.77 41.93, 89.79 41.59, 99.42 44.7 M68.42 40.78 C75.92 41.59, 83.06 41.23, 98.53 42.48" stroke="#000000" stroke-width="4" fill="none"></path></g><g transform="translate(508.9250923647752 692.0332855766845) rotate(322.7114127926438 49.04486888679115 21.054780068393825)"><path d="M77.1 20.99 C83.28 29.41, 92.5 35.27, 99.42 44.7 M76.88 22.08 C82.15 27.48, 87.23 31.66, 98.53 42.48" stroke="#000000" stroke-width="4" fill="none"></path></g></g><g stroke-linecap="round"><g transform="translate(508.3021022708161 728.1161832744033) rotate(0 49.62031902556231 18.77420271404617)"><path d="M0.08 -0.65 C16.98 5.77, 83.62 31.83, 100.58 38.2 M-1.34 1.63 C15.45 7.69, 82.28 30.01, 99.42 36.18" stroke="#000000" stroke-width="4" fill="none"></path></g><g transform="translate(508.3021022708161 728.1161832744033) rotate(0 49.62031902556231 18.77420271404617)"><path d="M68.34 36.01 C76.63 37.97, 82.42 37.41, 101.09 35.03 M69.43 36.82 C76.11 36.62, 81.46 36.59, 98.87 35.51" stroke="#000000" stroke-width="4" fill="none"></path></g><g transform="translate(508.3021022708161 728.1161832744033) rotate(0 49.62031902556231 18.77420271404617)"><path d="M75.05 16.61 C81.74 23.03, 85.99 26.92, 101.09 35.03 M76.14 17.43 C81.53 21.26, 85.47 25.27, 98.87 35.51" stroke="#000000" stroke-width="4" fill="none"></path></g></g><g transform="translate(617.8899273510638 678.4607872596154) rotate(0 130 12.5)"><text x="130" y="18" font-family="Virgil, Segoe UI Emoji" font-size="20px" fill="#000000" text-anchor="middle" style="white-space: pre;" direction="ltr">&gt;= 40,000 (50,000) km^2</text></g><g transform="translate(616.4328961010638 759.2810997596154) rotate(0 130 12.5)"><text x="130" y="18" font-family="Virgil, Segoe UI Emoji" font-size="20px" fill="#000000" text-anchor="middle" style="white-space: pre;" direction="ltr">&lt; 40,000 (50,000)  km^2</text></g><g stroke-linecap="round"><g transform="translate(887.4206730769231 689.9599718648309) rotate(0 43.41442369025198 0.5630014575592668)"><path d="M0.97 0.2 C15.59 0.22, 72.52 0.41, 86.81 0.34 M0.02 -0.75 C14.65 -0.53, 71.98 1.62, 86.38 1.87" stroke="#000000" stroke-width="4" fill="none"></path></g><g transform="translate(887.4206730769231 689.9599718648309) rotate(0 43.41442369025198 0.5630014575592668)"><path d="M58.24 12.97 C64.26 10.47, 69.69 6.51, 87.82 1.04 M58.25 11.69 C68.51 7, 78.49 4.34, 85.73 2.04" stroke="#000000" stroke-width="4" fill="none"></path></g><g transform="translate(887.4206730769231 689.9599718648309) rotate(0 43.41442369025198 0.5630014575592668)"><path d="M58.82 -7.54 C64.74 -5.44, 70.04 -4.8, 87.82 1.04 M58.84 -8.82 C68.73 -5.88, 78.49 -0.89, 85.73 2.04" stroke="#000000" stroke-width="4" fill="none"></path></g></g><g transform="translate(982.1355168269231 664.0643028846154) rotate(0 36 22.5)"><text x="36" y="32" font-family="Virgil, Segoe UI Emoji" font-size="36px" fill="#364fc7" text-anchor="middle" style="white-space: pre;" direction="ltr">BSR</text></g><g stroke-linecap="round"><g transform="translate(886.5163762019231 771.4890956223306) rotate(0 42.952253181422094 -1.1138871934160761)"><path d="M0.56 0.25 C14.83 0.01, 72.08 -0.39, 86.51 -0.92 M-0.6 -0.66 C13.48 -1.26, 71.24 -2.25, 85.85 -2.48" stroke="#000000" stroke-width="4" fill="none"></path></g><g transform="translate(886.5163762019231 771.4890956223306) rotate(0 42.952253181422094 -1.1138871934160761)"><path d="M58.26 9.17 C70.01 6.11, 77.18 -0.7, 84.27 -2.43 M57.68 7.29 C63.61 5.95, 70.57 3.17, 86.47 -1.67" stroke="#000000" stroke-width="4" fill="none"></path></g><g transform="translate(886.5163762019231 771.4890956223306) rotate(0 42.952253181422094 -1.1138871934160761)"><path d="M57.91 -11.35 C69.88 -6.76, 77.18 -5.9, 84.27 -2.43 M57.33 -13.22 C63.41 -9.79, 70.44 -7.79, 86.47 -1.67" stroke="#000000" stroke-width="4" fill="none"></path></g></g><g transform="translate(976.8308293269231 754.5525841346154) rotate(0 44 17.5)"><text x="44" y="25" font-family="Virgil, Segoe UI Emoji" font-size="28px" fill="#000000" text-anchor="middle" style="white-space: pre;" direction="ltr">others</text></g></svg>